M48
INCH,TZ
T1C0.016
T2C0.031
T3C0.035
T4C0.039
%
G90
G05
T1
X22750Y-27750
X23750Y-35750
X23750Y-37000
X24213Y-33661
X25500Y-23000
X26000Y-21000
X26000Y-25000
X26500Y-21500
X26500Y-26000
X27000Y-24500
X27000Y-26500
X27250Y-27750
X27868Y-37868
X27953Y-31693
X28500Y-24000
X29374Y-29750
X30500Y-37500
X31500Y-25750
X32000Y-31500
X32283Y-34055
X32874Y-27165
X33000Y-34750
X33250Y-31000
X33500Y-33000
X34000Y-32500
X34000Y-37000
X34500Y-39250
X35000Y-20250
X35000Y-25250
X35500Y-31500
X35500Y-37500
X36000Y-29000
X36500Y-31000
X36614Y-27756
X37750Y-38750
X37795Y-28740
X38500Y-28000
X39370Y-31102
X39750Y-37750
X39961Y-27756
X40874Y-29750
X41000Y-30500
X41732Y-26969
X41732Y-31693
X42520Y-22244
X42800Y-32200
X43100Y-39700
X43504Y-21457
X44000Y-38750
X44250Y-39250
X44882Y-28543
X44882Y-31102
X44882Y-41535
X50500Y-20250
T2
X25374Y-31000
X25374Y-34000
X25374Y-35750
X25374Y-38750
X26374Y-31000
X26374Y-34000
X26374Y-35750
X26374Y-38750
X27374Y-31000
X27374Y-34000
X27374Y-35750
X27374Y-38750
X28374Y-31000
X28374Y-34000
X28374Y-35750
X28374Y-38750
X29374Y-31000
X29374Y-34000
X29374Y-35750
X29374Y-38750
X30374Y-31000
X30374Y-34000
X30374Y-35750
X30374Y-38750
X31374Y-31000
X31374Y-34000
X31374Y-35750
X31374Y-38750
X34874Y-23000
X34874Y-26000
X34874Y-33000
X34874Y-36000
X35874Y-23000
X35874Y-26000
X35874Y-33000
X35874Y-36000
X36874Y-23000
X36874Y-26000
X36874Y-33000
X36874Y-36000
X37874Y-23000
X37874Y-26000
X37874Y-33000
X37874Y-36000
X38874Y-23000
X38874Y-26000
X38874Y-33000
X38874Y-36000
X39874Y-23000
X39874Y-26000
X39874Y-33000
X39874Y-36000
X40874Y-23000
X40874Y-26000
X40874Y-33000
X40874Y-36000
X41874Y-23000
X41874Y-26000
X41874Y-33000
X41874Y-36000
X50874Y-27000
X50874Y-28000
X50874Y-29000
X50874Y-30000
X50874Y-31000
X50874Y-32000
X50874Y-33000
X50874Y-34000
X50874Y-35000
X50874Y-36000
X53874Y-27000
X53874Y-28000
X53874Y-29000
X53874Y-30000
X53874Y-31000
X53874Y-32000
X53874Y-33000
X53874Y-34000
X53874Y-35000
X53874Y-36000
T3
X46457Y-21222
X46457Y-22222
X46457Y-23978
X46457Y-24978
X46457Y-26734
X46457Y-27734
X46457Y-29490
X46457Y-30490
X46457Y-32246
X46457Y-33246
X46457Y-35002
X46457Y-36002
X46457Y-37758
X46457Y-38758
X46457Y-40514
X46457Y-41514
T4
X21624Y-25250
X21624Y-26250
X21624Y-27250
X21624Y-28250
X21624Y-29250
X21624Y-30250
X21624Y-31250
X21624Y-32250
X21654Y-33746
X21654Y-34746
X21654Y-35746
X21654Y-36746
X21654Y-37746
X21654Y-38746
X21654Y-39746
X21654Y-40746
X24124Y-22750
X27874Y-42000
X39500Y-42000
X53100Y-42000
X54624Y-22750
X57500Y-29000
X57500Y-30000
X57500Y-31000
X57500Y-32000
X57500Y-33000
X57500Y-34000
X57500Y-35000
X57500Y-36000
T0
M30
