G04 #@! TF.FileFunction,Copper,L2,Bot,Signal*
%FSLAX46Y46*%
G04 Gerber Fmt 4.6, Leading zero omitted, Abs format (unit mm)*
G04 Created by KiCad (PCBNEW 4.0.6-e0-6349~53~ubuntu16.04.1) date Mon May 29 18:46:17 2017*
%MOMM*%
%LPD*%
G01*
G04 APERTURE LIST*
%ADD10C,0.100000*%
%ADD11R,1.800000X1.800000*%
%ADD12C,1.800000*%
%ADD13R,1.700000X1.700000*%
%ADD14O,1.700000X1.700000*%
%ADD15R,1.600000X1.600000*%
%ADD16O,1.600000X1.600000*%
%ADD17R,5.000000X10.000000*%
%ADD18C,0.600000*%
%ADD19C,2.000000*%
%ADD20C,0.500000*%
%ADD21C,1.000000*%
%ADD22C,0.254000*%
G04 APERTURE END LIST*
D10*
D11*
X118000000Y-53905000D03*
D12*
X118000000Y-56445000D03*
D11*
X118000000Y-60905000D03*
D12*
X118000000Y-63445000D03*
D11*
X118000000Y-67905000D03*
D12*
X118000000Y-70445000D03*
D11*
X118000000Y-74905000D03*
D12*
X118000000Y-77445000D03*
D11*
X118000000Y-81905000D03*
D12*
X118000000Y-84445000D03*
D11*
X118000000Y-88905000D03*
D12*
X118000000Y-91445000D03*
D11*
X118000000Y-95905000D03*
D12*
X118000000Y-98445000D03*
D11*
X118000000Y-102905000D03*
D12*
X118000000Y-105445000D03*
D13*
X54925000Y-64135000D03*
D14*
X54925000Y-66675000D03*
X54925000Y-69215000D03*
X54925000Y-71755000D03*
X54925000Y-74295000D03*
X54925000Y-76835000D03*
X54925000Y-79375000D03*
X54925000Y-81915000D03*
D13*
X55000000Y-85715000D03*
D14*
X55000000Y-88255000D03*
X55000000Y-90795000D03*
X55000000Y-93335000D03*
X55000000Y-95875000D03*
X55000000Y-98415000D03*
X55000000Y-100955000D03*
X55000000Y-103495000D03*
D13*
X70800000Y-106680000D03*
X100330000Y-106680000D03*
X146050000Y-73660000D03*
D14*
X146050000Y-76200000D03*
X146050000Y-78740000D03*
X146050000Y-81280000D03*
X146050000Y-83820000D03*
X146050000Y-86360000D03*
X146050000Y-88900000D03*
X146050000Y-91440000D03*
D13*
X134874000Y-106680000D03*
D15*
X88580000Y-66040000D03*
D16*
X106360000Y-58420000D03*
X91120000Y-66040000D03*
X103820000Y-58420000D03*
X93660000Y-66040000D03*
X101280000Y-58420000D03*
X96200000Y-66040000D03*
X98740000Y-58420000D03*
X98740000Y-66040000D03*
X96200000Y-58420000D03*
X101280000Y-66040000D03*
X93660000Y-58420000D03*
X103820000Y-66040000D03*
X91120000Y-58420000D03*
X106360000Y-66040000D03*
X88580000Y-58420000D03*
D15*
X88580000Y-91440000D03*
D16*
X106360000Y-83820000D03*
X91120000Y-91440000D03*
X103820000Y-83820000D03*
X93660000Y-91440000D03*
X101280000Y-83820000D03*
X96200000Y-91440000D03*
X98740000Y-83820000D03*
X98740000Y-91440000D03*
X96200000Y-83820000D03*
X101280000Y-91440000D03*
X93660000Y-83820000D03*
X103820000Y-91440000D03*
X91120000Y-83820000D03*
X106360000Y-91440000D03*
X88580000Y-83820000D03*
D15*
X64450000Y-98425000D03*
D16*
X79690000Y-90805000D03*
X66990000Y-98425000D03*
X77150000Y-90805000D03*
X69530000Y-98425000D03*
X74610000Y-90805000D03*
X72070000Y-98425000D03*
X72070000Y-90805000D03*
X74610000Y-98425000D03*
X69530000Y-90805000D03*
X77150000Y-98425000D03*
X66990000Y-90805000D03*
X79690000Y-98425000D03*
X64450000Y-90805000D03*
D15*
X64450000Y-86360000D03*
D16*
X79690000Y-78740000D03*
X66990000Y-86360000D03*
X77150000Y-78740000D03*
X69530000Y-86360000D03*
X74610000Y-78740000D03*
X72070000Y-86360000D03*
X72070000Y-78740000D03*
X74610000Y-86360000D03*
X69530000Y-78740000D03*
X77150000Y-86360000D03*
X66990000Y-78740000D03*
X79690000Y-86360000D03*
X64450000Y-78740000D03*
D15*
X129220000Y-68580000D03*
D16*
X136840000Y-91440000D03*
X129220000Y-71120000D03*
X136840000Y-88900000D03*
X129220000Y-73660000D03*
X136840000Y-86360000D03*
X129220000Y-76200000D03*
X136840000Y-83820000D03*
X129220000Y-78740000D03*
X136840000Y-81280000D03*
X129220000Y-81280000D03*
X136840000Y-78740000D03*
X129220000Y-83820000D03*
X136840000Y-76200000D03*
X129220000Y-86360000D03*
X136840000Y-73660000D03*
X129220000Y-88900000D03*
X136840000Y-71120000D03*
X129220000Y-91440000D03*
X136840000Y-68580000D03*
D13*
X138745000Y-57785000D03*
X61275000Y-57785000D03*
D17*
X146365000Y-55245000D03*
X53655000Y-55245000D03*
D18*
X95885000Y-98425000D03*
X111760000Y-98425000D03*
X87630000Y-99695000D03*
X112395000Y-99695000D03*
X101500000Y-70500000D03*
X104140000Y-77470000D03*
X114000000Y-72500000D03*
X96000000Y-73000000D03*
X100000000Y-79000000D03*
X93000000Y-70500000D03*
X114000000Y-79000000D03*
X108000000Y-56500000D03*
X106000000Y-68500000D03*
X106000000Y-80500000D03*
X110500000Y-54500000D03*
X114000000Y-105500000D03*
X66040000Y-53340000D03*
X66040000Y-63500000D03*
X67310000Y-54610000D03*
X67310000Y-66040000D03*
X68580000Y-62230000D03*
X68580000Y-67310000D03*
X97790000Y-71120000D03*
X92710000Y-78740000D03*
X91440000Y-73660000D03*
X86360000Y-82550000D03*
X86360000Y-93980000D03*
X85090000Y-83820000D03*
X69215000Y-70485000D03*
X57785000Y-70485000D03*
X103820000Y-75565000D03*
X74610000Y-75565000D03*
X109474000Y-100838000D03*
X108712000Y-81788000D03*
X90170000Y-80010000D03*
X81280000Y-80010000D03*
X72390000Y-60960000D03*
X82000000Y-86500000D03*
X83500000Y-69000000D03*
X80010000Y-65405000D03*
X88900000Y-64135000D03*
X88900000Y-51435000D03*
X128270000Y-51435000D03*
X64770000Y-58420000D03*
X60325000Y-90805000D03*
X77470000Y-95250000D03*
X90170000Y-95250000D03*
X84455000Y-78740000D03*
X83820000Y-88265000D03*
X70784999Y-96184999D03*
X100965000Y-95885000D03*
X71000000Y-80500000D03*
X61500000Y-85500000D03*
X60325000Y-93980000D03*
D19*
X61275000Y-57785000D02*
X56195000Y-57785000D01*
X56195000Y-57785000D02*
X53655000Y-55245000D01*
D20*
X95885000Y-98425000D02*
X95885000Y-91755000D01*
X95885000Y-91755000D02*
X96200000Y-91440000D01*
X118000000Y-56445000D02*
X111760000Y-62685000D01*
X111760000Y-62685000D02*
X111760000Y-98425000D01*
X87630000Y-99695000D02*
X87630000Y-92390000D01*
X87630000Y-92390000D02*
X88580000Y-91440000D01*
X113720000Y-63445000D02*
X112914999Y-64250001D01*
X112914999Y-64250001D02*
X112914999Y-99175001D01*
X112914999Y-99175001D02*
X112395000Y-99695000D01*
X114355000Y-63445000D02*
X113720000Y-63445000D01*
X118000000Y-63445000D02*
X114355000Y-63445000D01*
X99209998Y-81500000D02*
X98520000Y-81500000D01*
X98520000Y-81500000D02*
X96200000Y-83820000D01*
X101500000Y-70500000D02*
X101500000Y-79209998D01*
X101500000Y-79209998D02*
X99209998Y-81500000D01*
X96543142Y-83476858D02*
X96200000Y-83820000D01*
X104140000Y-77470000D02*
X103820000Y-77790000D01*
X103820000Y-77790000D02*
X103820000Y-83820000D01*
X114000000Y-72500000D02*
X114750001Y-73250001D01*
X114750001Y-73250001D02*
X114750001Y-81195001D01*
X114750001Y-81195001D02*
X117100001Y-83545001D01*
X117100001Y-83545001D02*
X118000000Y-84445000D01*
X96200000Y-66040000D02*
X96200000Y-72800000D01*
X96200000Y-72800000D02*
X96000000Y-73000000D01*
X99500000Y-79000000D02*
X93500000Y-73000000D01*
X93500000Y-73000000D02*
X93500000Y-71000000D01*
X100000000Y-79000000D02*
X99500000Y-79000000D01*
X93500000Y-71000000D02*
X93000000Y-70500000D01*
X118000000Y-91445000D02*
X114000000Y-87445000D01*
X114000000Y-87445000D02*
X114000000Y-79000000D01*
X108000000Y-56500000D02*
X106000000Y-54500000D01*
X106000000Y-54500000D02*
X96500000Y-54500000D01*
X96500000Y-54500000D02*
X96200000Y-54800000D01*
X96200000Y-54800000D02*
X96200000Y-58420000D01*
X106000000Y-80500000D02*
X106000000Y-68500000D01*
X96266000Y-58354000D02*
X96200000Y-58420000D01*
X111009999Y-54990001D02*
X110519998Y-54500000D01*
X110519998Y-54500000D02*
X110500000Y-54500000D01*
X114000000Y-105500000D02*
X114000000Y-104253998D01*
X114000000Y-104253998D02*
X111009999Y-101263997D01*
X111009999Y-101263997D02*
X111009999Y-54990001D01*
X104000000Y-58240000D02*
X103820000Y-58420000D01*
X103632000Y-58232000D02*
X103820000Y-58420000D01*
X66040000Y-63500000D02*
X66040000Y-53340000D01*
X67310000Y-66040000D02*
X67310000Y-54610000D01*
X68580000Y-67310000D02*
X68580000Y-62230000D01*
X97790000Y-71120000D02*
X98740000Y-70170000D01*
X98740000Y-70170000D02*
X98740000Y-66040000D01*
X91440000Y-73660000D02*
X91440000Y-77470000D01*
X91440000Y-77470000D02*
X92710000Y-78740000D01*
X90170000Y-88900000D02*
X91120000Y-88900000D01*
X91120000Y-88900000D02*
X93660000Y-91440000D01*
X86360000Y-85090000D02*
X90170000Y-88900000D01*
X86360000Y-82550000D02*
X86360000Y-85090000D01*
X85090000Y-83820000D02*
X85090000Y-92710000D01*
X85090000Y-92710000D02*
X86360000Y-93980000D01*
X69215000Y-70485000D02*
X69215000Y-78425000D01*
X69215000Y-78425000D02*
X69530000Y-78740000D01*
X57785000Y-85090000D02*
X57785000Y-70485000D01*
X57150000Y-85725000D02*
X57785000Y-85090000D01*
X56360000Y-85725000D02*
X57150000Y-85725000D01*
X55000000Y-85715000D02*
X56350000Y-85715000D01*
X56350000Y-85715000D02*
X56360000Y-85725000D01*
D21*
X103820000Y-75565000D02*
X103820000Y-66040000D01*
X74610000Y-78740000D02*
X74610000Y-75565000D01*
X66990000Y-90805000D02*
X66990000Y-86360000D01*
X74610000Y-86360000D02*
X74610000Y-78740000D01*
X74610000Y-90805000D02*
X74610000Y-86360000D01*
X74610000Y-98425000D02*
X74610000Y-90805000D01*
X66990000Y-98425000D02*
X66990000Y-90805000D01*
X66990000Y-98425000D02*
X70800000Y-102235000D01*
X70800000Y-106680000D02*
X70800000Y-102235000D01*
X70800000Y-102235000D02*
X74610000Y-98425000D01*
D20*
X106360000Y-83820000D02*
X109474000Y-86934000D01*
X109474000Y-86934000D02*
X109474000Y-100838000D01*
X108712000Y-81788000D02*
X108712000Y-60772000D01*
X108712000Y-60772000D02*
X106360000Y-58420000D01*
X90170000Y-80010000D02*
X90170000Y-66990000D01*
X90170000Y-66990000D02*
X91120000Y-66040000D01*
X77150000Y-86360000D02*
X77150000Y-84140000D01*
X77150000Y-84140000D02*
X81280000Y-80010000D01*
X72070000Y-78740000D02*
X72070000Y-61280000D01*
X72070000Y-61280000D02*
X72390000Y-60960000D01*
X83500000Y-69000000D02*
X83119990Y-69380010D01*
X83119990Y-69380010D02*
X83119990Y-85380010D01*
X83119990Y-85380010D02*
X82000000Y-86500000D01*
X80010000Y-65405000D02*
X79690000Y-65725000D01*
X79690000Y-65725000D02*
X79690000Y-78740000D01*
X91120000Y-58420000D02*
X91120000Y-61915000D01*
X91120000Y-61915000D02*
X88900000Y-64135000D01*
D21*
X88580000Y-83820000D02*
X88580000Y-82688630D01*
X88580000Y-82688630D02*
X87079999Y-81188629D01*
X87079999Y-81188629D02*
X87079999Y-59920001D01*
X87079999Y-59920001D02*
X87780001Y-59219999D01*
X87780001Y-59219999D02*
X88580000Y-58420000D01*
D19*
X88900000Y-51435000D02*
X88900000Y-58100000D01*
X88900000Y-58100000D02*
X88580000Y-58420000D01*
X129220000Y-52385000D02*
X128270000Y-51435000D01*
X129220000Y-68580000D02*
X129220000Y-52385000D01*
D21*
X64450000Y-78740000D02*
X64450000Y-58740000D01*
X64450000Y-58740000D02*
X64770000Y-58420000D01*
X64450000Y-78740000D02*
X60325000Y-82865000D01*
X60325000Y-82865000D02*
X60325000Y-90805000D01*
D19*
X138745000Y-57785000D02*
X143825000Y-57785000D01*
X143825000Y-57785000D02*
X146365000Y-55245000D01*
D20*
X77150000Y-98425000D02*
X77150000Y-95570000D01*
X77150000Y-95570000D02*
X77470000Y-95250000D01*
X90805000Y-95250000D02*
X91120000Y-94935000D01*
X91120000Y-94935000D02*
X91120000Y-91440000D01*
X90170000Y-95250000D02*
X90805000Y-95250000D01*
X83820000Y-88265000D02*
X83820000Y-79375000D01*
X83820000Y-79375000D02*
X84455000Y-78740000D01*
X69530000Y-98425000D02*
X70784999Y-97170001D01*
X70784999Y-97170001D02*
X70784999Y-96184999D01*
X101280000Y-91440000D02*
X101280000Y-95570000D01*
X101280000Y-95570000D02*
X100965000Y-95885000D01*
X134874000Y-106680000D02*
X134874000Y-73086000D01*
X134874000Y-73086000D02*
X136840000Y-71120000D01*
X61500000Y-85500000D02*
X66500000Y-80500000D01*
X66500000Y-80500000D02*
X71000000Y-80500000D01*
X62500000Y-86500000D02*
X62640000Y-86360000D01*
X62640000Y-86360000D02*
X64450000Y-86360000D01*
X62500000Y-90904998D02*
X62500000Y-86500000D01*
X61014999Y-92485001D02*
X61014999Y-92389999D01*
X61014999Y-92389999D02*
X62500000Y-90904998D01*
X55000000Y-93335000D02*
X55849999Y-92485001D01*
X55849999Y-92485001D02*
X61014999Y-92485001D01*
X55000000Y-98415000D02*
X59435000Y-93980000D01*
X59435000Y-93980000D02*
X60325000Y-93980000D01*
X55000000Y-103495000D02*
X60070000Y-98425000D01*
X60070000Y-98425000D02*
X64450000Y-98425000D01*
D22*
G36*
X87389457Y-50809313D02*
X87265000Y-51435000D01*
X87265000Y-57501661D01*
X87069457Y-57794312D01*
X86944999Y-58420000D01*
X86949955Y-58444913D01*
X86277433Y-59117435D01*
X86031396Y-59485655D01*
X85944999Y-59920001D01*
X85944999Y-81188629D01*
X86031396Y-81622975D01*
X86058168Y-81663043D01*
X85831057Y-81756883D01*
X85567808Y-82019673D01*
X85425162Y-82363201D01*
X85424838Y-82735167D01*
X85475000Y-82856569D01*
X85475000Y-82967463D01*
X85276799Y-82885162D01*
X84904833Y-82884838D01*
X84705000Y-82967407D01*
X84705000Y-79741580D01*
X84863835Y-79582745D01*
X84983943Y-79533117D01*
X85247192Y-79270327D01*
X85389838Y-78926799D01*
X85390162Y-78554833D01*
X85248117Y-78211057D01*
X84985327Y-77947808D01*
X84641799Y-77805162D01*
X84269833Y-77804838D01*
X84004990Y-77914269D01*
X84004990Y-69803014D01*
X84028943Y-69793117D01*
X84292192Y-69530327D01*
X84434838Y-69186799D01*
X84435162Y-68814833D01*
X84293117Y-68471057D01*
X84030327Y-68207808D01*
X83686799Y-68065162D01*
X83314833Y-68064838D01*
X82971057Y-68206883D01*
X82707808Y-68469673D01*
X82657434Y-68590986D01*
X82494200Y-68754220D01*
X82302357Y-69041335D01*
X82302357Y-69041336D01*
X82234989Y-69380010D01*
X82234990Y-69380015D01*
X82234990Y-85013431D01*
X81591164Y-85657256D01*
X81471057Y-85706883D01*
X81207808Y-85969673D01*
X81098465Y-86232998D01*
X80960630Y-86232998D01*
X81081914Y-86010959D01*
X80842389Y-85504866D01*
X80427423Y-85128959D01*
X80039039Y-84968096D01*
X79817000Y-85090085D01*
X79817000Y-86233000D01*
X79837000Y-86233000D01*
X79837000Y-86487000D01*
X79817000Y-86487000D01*
X79817000Y-87629915D01*
X80039039Y-87751904D01*
X80427423Y-87591041D01*
X80842389Y-87215134D01*
X81078064Y-86717176D01*
X81206883Y-87028943D01*
X81469673Y-87292192D01*
X81813201Y-87434838D01*
X82185167Y-87435162D01*
X82528943Y-87293117D01*
X82792192Y-87030327D01*
X82842566Y-86909014D01*
X82935000Y-86816580D01*
X82935000Y-87958178D01*
X82885162Y-88078201D01*
X82884838Y-88450167D01*
X83026883Y-88793943D01*
X83289673Y-89057192D01*
X83633201Y-89199838D01*
X84005167Y-89200162D01*
X84205000Y-89117593D01*
X84205000Y-92709995D01*
X84204999Y-92710000D01*
X84258759Y-92980265D01*
X84272367Y-93048675D01*
X84378578Y-93207632D01*
X84464210Y-93335790D01*
X85517255Y-94388834D01*
X85566883Y-94508943D01*
X85829673Y-94772192D01*
X86173201Y-94914838D01*
X86545167Y-94915162D01*
X86745000Y-94832593D01*
X86745000Y-99388178D01*
X86695162Y-99508201D01*
X86694838Y-99880167D01*
X86836883Y-100223943D01*
X87099673Y-100487192D01*
X87443201Y-100629838D01*
X87815167Y-100630162D01*
X88158943Y-100488117D01*
X88422192Y-100225327D01*
X88564838Y-99881799D01*
X88565162Y-99509833D01*
X88515000Y-99388431D01*
X88515000Y-92887440D01*
X89380000Y-92887440D01*
X89615317Y-92843162D01*
X89831441Y-92704090D01*
X89976431Y-92491890D01*
X90007815Y-92336911D01*
X90105302Y-92482811D01*
X90235000Y-92569473D01*
X90235000Y-94315056D01*
X89984833Y-94314838D01*
X89641057Y-94456883D01*
X89377808Y-94719673D01*
X89235162Y-95063201D01*
X89234838Y-95435167D01*
X89376883Y-95778943D01*
X89639673Y-96042192D01*
X89983201Y-96184838D01*
X90355167Y-96185162D01*
X90476569Y-96135000D01*
X90804995Y-96135000D01*
X90805000Y-96135001D01*
X91122731Y-96071799D01*
X91143675Y-96067633D01*
X91430790Y-95875790D01*
X91745787Y-95560792D01*
X91745790Y-95560790D01*
X91937633Y-95273675D01*
X91973794Y-95091883D01*
X92005001Y-94935000D01*
X92005000Y-94934995D01*
X92005000Y-92569473D01*
X92134698Y-92482811D01*
X92390000Y-92100725D01*
X92645302Y-92482811D01*
X93110849Y-92793880D01*
X93660000Y-92903113D01*
X94209151Y-92793880D01*
X94674698Y-92482811D01*
X94930000Y-92100725D01*
X95000000Y-92205487D01*
X95000000Y-98118178D01*
X94950162Y-98238201D01*
X94949838Y-98610167D01*
X95091883Y-98953943D01*
X95354673Y-99217192D01*
X95698201Y-99359838D01*
X96070167Y-99360162D01*
X96413943Y-99218117D01*
X96677192Y-98955327D01*
X96819838Y-98611799D01*
X96820162Y-98239833D01*
X96770000Y-98118431D01*
X96770000Y-92779949D01*
X97214698Y-92482811D01*
X97470000Y-92100725D01*
X97725302Y-92482811D01*
X98190849Y-92793880D01*
X98740000Y-92903113D01*
X99289151Y-92793880D01*
X99754698Y-92482811D01*
X100010000Y-92100725D01*
X100265302Y-92482811D01*
X100395000Y-92569473D01*
X100395000Y-95132868D01*
X100172808Y-95354673D01*
X100030162Y-95698201D01*
X100029838Y-96070167D01*
X100171883Y-96413943D01*
X100434673Y-96677192D01*
X100778201Y-96819838D01*
X101150167Y-96820162D01*
X101493943Y-96678117D01*
X101757192Y-96415327D01*
X101807566Y-96294013D01*
X101905787Y-96195792D01*
X101905790Y-96195790D01*
X102097633Y-95908675D01*
X102104174Y-95875790D01*
X102165001Y-95570000D01*
X102165000Y-95569995D01*
X102165000Y-92569473D01*
X102294698Y-92482811D01*
X102550000Y-92100725D01*
X102805302Y-92482811D01*
X103270849Y-92793880D01*
X103820000Y-92903113D01*
X104369151Y-92793880D01*
X104834698Y-92482811D01*
X105104986Y-92078297D01*
X105207611Y-92295134D01*
X105622577Y-92671041D01*
X106010961Y-92831904D01*
X106233000Y-92709915D01*
X106233000Y-91567000D01*
X106487000Y-91567000D01*
X106487000Y-92709915D01*
X106709039Y-92831904D01*
X107097423Y-92671041D01*
X107512389Y-92295134D01*
X107751914Y-91789041D01*
X107630629Y-91567000D01*
X106487000Y-91567000D01*
X106233000Y-91567000D01*
X106213000Y-91567000D01*
X106213000Y-91313000D01*
X106233000Y-91313000D01*
X106233000Y-90170085D01*
X106487000Y-90170085D01*
X106487000Y-91313000D01*
X107630629Y-91313000D01*
X107751914Y-91090959D01*
X107512389Y-90584866D01*
X107097423Y-90208959D01*
X106709039Y-90048096D01*
X106487000Y-90170085D01*
X106233000Y-90170085D01*
X106010961Y-90048096D01*
X105622577Y-90208959D01*
X105207611Y-90584866D01*
X105104986Y-90801703D01*
X104834698Y-90397189D01*
X104369151Y-90086120D01*
X103820000Y-89976887D01*
X103270849Y-90086120D01*
X102805302Y-90397189D01*
X102550000Y-90779275D01*
X102294698Y-90397189D01*
X101829151Y-90086120D01*
X101280000Y-89976887D01*
X100730849Y-90086120D01*
X100265302Y-90397189D01*
X100010000Y-90779275D01*
X99754698Y-90397189D01*
X99289151Y-90086120D01*
X98740000Y-89976887D01*
X98190849Y-90086120D01*
X97725302Y-90397189D01*
X97470000Y-90779275D01*
X97214698Y-90397189D01*
X96749151Y-90086120D01*
X96200000Y-89976887D01*
X95650849Y-90086120D01*
X95185302Y-90397189D01*
X94930000Y-90779275D01*
X94674698Y-90397189D01*
X94209151Y-90086120D01*
X93660000Y-89976887D01*
X93483562Y-90011983D01*
X91745790Y-88274210D01*
X91717040Y-88255000D01*
X91458675Y-88082367D01*
X91400474Y-88070790D01*
X91120000Y-88014999D01*
X91119995Y-88015000D01*
X90536579Y-88015000D01*
X87245000Y-84723420D01*
X87245000Y-84350847D01*
X87254233Y-84397264D01*
X87565302Y-84862811D01*
X88030849Y-85173880D01*
X88580000Y-85283113D01*
X89129151Y-85173880D01*
X89594698Y-84862811D01*
X89850000Y-84480725D01*
X90105302Y-84862811D01*
X90570849Y-85173880D01*
X91120000Y-85283113D01*
X91669151Y-85173880D01*
X92134698Y-84862811D01*
X92390000Y-84480725D01*
X92645302Y-84862811D01*
X93110849Y-85173880D01*
X93660000Y-85283113D01*
X94209151Y-85173880D01*
X94674698Y-84862811D01*
X94930000Y-84480725D01*
X95185302Y-84862811D01*
X95650849Y-85173880D01*
X96200000Y-85283113D01*
X96749151Y-85173880D01*
X97214698Y-84862811D01*
X97470000Y-84480725D01*
X97725302Y-84862811D01*
X98190849Y-85173880D01*
X98740000Y-85283113D01*
X99289151Y-85173880D01*
X99754698Y-84862811D01*
X100010000Y-84480725D01*
X100265302Y-84862811D01*
X100730849Y-85173880D01*
X101280000Y-85283113D01*
X101829151Y-85173880D01*
X102294698Y-84862811D01*
X102550000Y-84480725D01*
X102805302Y-84862811D01*
X103270849Y-85173880D01*
X103820000Y-85283113D01*
X104369151Y-85173880D01*
X104834698Y-84862811D01*
X105090000Y-84480725D01*
X105345302Y-84862811D01*
X105810849Y-85173880D01*
X106360000Y-85283113D01*
X106536438Y-85248017D01*
X108589000Y-87300579D01*
X108589000Y-100531178D01*
X108539162Y-100651201D01*
X108538838Y-101023167D01*
X108680883Y-101366943D01*
X108943673Y-101630192D01*
X109287201Y-101772838D01*
X109659167Y-101773162D01*
X110002943Y-101631117D01*
X110165705Y-101468639D01*
X110192366Y-101602672D01*
X110306067Y-101772838D01*
X110384209Y-101889787D01*
X113115000Y-104620577D01*
X113115000Y-105193178D01*
X113065162Y-105313201D01*
X113064838Y-105685167D01*
X113206883Y-106028943D01*
X113469673Y-106292192D01*
X113813201Y-106434838D01*
X114185167Y-106435162D01*
X114528943Y-106293117D01*
X114792192Y-106030327D01*
X114909013Y-105748991D01*
X116464735Y-105748991D01*
X116697932Y-106313371D01*
X117129357Y-106745551D01*
X117693330Y-106979733D01*
X118303991Y-106980265D01*
X118868371Y-106747068D01*
X119300551Y-106315643D01*
X119502207Y-105830000D01*
X133376560Y-105830000D01*
X133376560Y-107530000D01*
X133420838Y-107765317D01*
X133559910Y-107981441D01*
X133772110Y-108126431D01*
X134024000Y-108177440D01*
X135724000Y-108177440D01*
X135959317Y-108133162D01*
X136175441Y-107994090D01*
X136320431Y-107781890D01*
X136371440Y-107530000D01*
X136371440Y-105830000D01*
X136327162Y-105594683D01*
X136188090Y-105378559D01*
X135975890Y-105233569D01*
X135759000Y-105189648D01*
X135759000Y-92397544D01*
X135797189Y-92454698D01*
X136262736Y-92765767D01*
X136811887Y-92875000D01*
X136868113Y-92875000D01*
X137417264Y-92765767D01*
X137882811Y-92454698D01*
X138193880Y-91989151D01*
X138303113Y-91440000D01*
X138193880Y-90890849D01*
X137882811Y-90425302D01*
X137500725Y-90170000D01*
X137882811Y-89914698D01*
X138193880Y-89449151D01*
X138303113Y-88900000D01*
X138193880Y-88350849D01*
X137882811Y-87885302D01*
X137500725Y-87630000D01*
X137882811Y-87374698D01*
X138193880Y-86909151D01*
X138303113Y-86360000D01*
X138193880Y-85810849D01*
X137882811Y-85345302D01*
X137500725Y-85090000D01*
X137882811Y-84834698D01*
X138193880Y-84369151D01*
X138303113Y-83820000D01*
X138193880Y-83270849D01*
X137882811Y-82805302D01*
X137500725Y-82550000D01*
X137882811Y-82294698D01*
X138193880Y-81829151D01*
X138303113Y-81280000D01*
X138193880Y-80730849D01*
X137882811Y-80265302D01*
X137500725Y-80010000D01*
X137882811Y-79754698D01*
X138193880Y-79289151D01*
X138303113Y-78740000D01*
X138193880Y-78190849D01*
X137882811Y-77725302D01*
X137500725Y-77470000D01*
X137882811Y-77214698D01*
X138193880Y-76749151D01*
X138303113Y-76200000D01*
X138193880Y-75650849D01*
X137882811Y-75185302D01*
X137500725Y-74930000D01*
X137882811Y-74674698D01*
X138193880Y-74209151D01*
X138303113Y-73660000D01*
X138193880Y-73110849D01*
X137882811Y-72645302D01*
X137500725Y-72390000D01*
X137882811Y-72134698D01*
X138193880Y-71669151D01*
X138303113Y-71120000D01*
X138193880Y-70570849D01*
X137882811Y-70105302D01*
X137500725Y-69850000D01*
X137882811Y-69594698D01*
X138193880Y-69129151D01*
X138303113Y-68580000D01*
X138193880Y-68030849D01*
X137882811Y-67565302D01*
X137417264Y-67254233D01*
X136868113Y-67145000D01*
X136811887Y-67145000D01*
X136262736Y-67254233D01*
X135797189Y-67565302D01*
X135486120Y-68030849D01*
X135376887Y-68580000D01*
X135486120Y-69129151D01*
X135797189Y-69594698D01*
X136179275Y-69850000D01*
X135797189Y-70105302D01*
X135486120Y-70570849D01*
X135376887Y-71120000D01*
X135411983Y-71296438D01*
X134248210Y-72460210D01*
X134056367Y-72747325D01*
X134056367Y-72747326D01*
X133988999Y-73086000D01*
X133989000Y-73086005D01*
X133989000Y-105189146D01*
X133788683Y-105226838D01*
X133572559Y-105365910D01*
X133427569Y-105578110D01*
X133376560Y-105830000D01*
X119502207Y-105830000D01*
X119534733Y-105751670D01*
X119535265Y-105141009D01*
X119302068Y-104576629D01*
X119124908Y-104399159D01*
X119259699Y-104343327D01*
X119438327Y-104164698D01*
X119535000Y-103931309D01*
X119535000Y-103190750D01*
X119376250Y-103032000D01*
X118127000Y-103032000D01*
X118127000Y-103052000D01*
X117873000Y-103052000D01*
X117873000Y-103032000D01*
X116623750Y-103032000D01*
X116465000Y-103190750D01*
X116465000Y-103931309D01*
X116561673Y-104164698D01*
X116740301Y-104343327D01*
X116874994Y-104399119D01*
X116699449Y-104574357D01*
X116465267Y-105138330D01*
X116464735Y-105748991D01*
X114909013Y-105748991D01*
X114934838Y-105686799D01*
X114935162Y-105314833D01*
X114885000Y-105193431D01*
X114885000Y-104254003D01*
X114885001Y-104253998D01*
X114817633Y-103915324D01*
X114817633Y-103915323D01*
X114625790Y-103628208D01*
X114625787Y-103628206D01*
X112876273Y-101878691D01*
X116465000Y-101878691D01*
X116465000Y-102619250D01*
X116623750Y-102778000D01*
X117873000Y-102778000D01*
X117873000Y-101528750D01*
X118127000Y-101528750D01*
X118127000Y-102778000D01*
X119376250Y-102778000D01*
X119535000Y-102619250D01*
X119535000Y-101878691D01*
X119438327Y-101645302D01*
X119259699Y-101466673D01*
X119026310Y-101370000D01*
X118285750Y-101370000D01*
X118127000Y-101528750D01*
X117873000Y-101528750D01*
X117714250Y-101370000D01*
X116973690Y-101370000D01*
X116740301Y-101466673D01*
X116561673Y-101645302D01*
X116465000Y-101878691D01*
X112876273Y-101878691D01*
X111894999Y-100897417D01*
X111894999Y-100499785D01*
X112208201Y-100629838D01*
X112580167Y-100630162D01*
X112923943Y-100488117D01*
X113187192Y-100225327D01*
X113237566Y-100104014D01*
X113540786Y-99800793D01*
X113540789Y-99800791D01*
X113732632Y-99513676D01*
X113763168Y-99360162D01*
X113800000Y-99175001D01*
X113799999Y-99174996D01*
X113799999Y-98748991D01*
X116464735Y-98748991D01*
X116697932Y-99313371D01*
X117129357Y-99745551D01*
X117693330Y-99979733D01*
X118303991Y-99980265D01*
X118868371Y-99747068D01*
X119300551Y-99315643D01*
X119534733Y-98751670D01*
X119535265Y-98141009D01*
X119302068Y-97576629D01*
X119124908Y-97399159D01*
X119259699Y-97343327D01*
X119438327Y-97164698D01*
X119535000Y-96931309D01*
X119535000Y-96190750D01*
X119376250Y-96032000D01*
X118127000Y-96032000D01*
X118127000Y-96052000D01*
X117873000Y-96052000D01*
X117873000Y-96032000D01*
X116623750Y-96032000D01*
X116465000Y-96190750D01*
X116465000Y-96931309D01*
X116561673Y-97164698D01*
X116740301Y-97343327D01*
X116874994Y-97399119D01*
X116699449Y-97574357D01*
X116465267Y-98138330D01*
X116464735Y-98748991D01*
X113799999Y-98748991D01*
X113799999Y-94878691D01*
X116465000Y-94878691D01*
X116465000Y-95619250D01*
X116623750Y-95778000D01*
X117873000Y-95778000D01*
X117873000Y-94528750D01*
X118127000Y-94528750D01*
X118127000Y-95778000D01*
X119376250Y-95778000D01*
X119535000Y-95619250D01*
X119535000Y-94878691D01*
X119438327Y-94645302D01*
X119259699Y-94466673D01*
X119026310Y-94370000D01*
X118285750Y-94370000D01*
X118127000Y-94528750D01*
X117873000Y-94528750D01*
X117714250Y-94370000D01*
X116973690Y-94370000D01*
X116740301Y-94466673D01*
X116561673Y-94645302D01*
X116465000Y-94878691D01*
X113799999Y-94878691D01*
X113799999Y-88496579D01*
X116465247Y-91161826D01*
X116464735Y-91748991D01*
X116697932Y-92313371D01*
X117129357Y-92745551D01*
X117693330Y-92979733D01*
X118303991Y-92980265D01*
X118868371Y-92747068D01*
X119300551Y-92315643D01*
X119519216Y-91789039D01*
X127828096Y-91789039D01*
X127988959Y-92177423D01*
X128364866Y-92592389D01*
X128870959Y-92831914D01*
X129093000Y-92710629D01*
X129093000Y-91567000D01*
X129347000Y-91567000D01*
X129347000Y-92710629D01*
X129569041Y-92831914D01*
X130075134Y-92592389D01*
X130451041Y-92177423D01*
X130611904Y-91789039D01*
X130489915Y-91567000D01*
X129347000Y-91567000D01*
X129093000Y-91567000D01*
X127950085Y-91567000D01*
X127828096Y-91789039D01*
X119519216Y-91789039D01*
X119534733Y-91751670D01*
X119535265Y-91141009D01*
X119302068Y-90576629D01*
X119124908Y-90399159D01*
X119259699Y-90343327D01*
X119438327Y-90164698D01*
X119535000Y-89931309D01*
X119535000Y-89190750D01*
X119376250Y-89032000D01*
X118127000Y-89032000D01*
X118127000Y-89052000D01*
X117873000Y-89052000D01*
X117873000Y-89032000D01*
X117853000Y-89032000D01*
X117853000Y-88778000D01*
X117873000Y-88778000D01*
X117873000Y-87528750D01*
X118127000Y-87528750D01*
X118127000Y-88778000D01*
X119376250Y-88778000D01*
X119535000Y-88619250D01*
X119535000Y-87878691D01*
X119438327Y-87645302D01*
X119259699Y-87466673D01*
X119026310Y-87370000D01*
X118285750Y-87370000D01*
X118127000Y-87528750D01*
X117873000Y-87528750D01*
X117714250Y-87370000D01*
X116973690Y-87370000D01*
X116740301Y-87466673D01*
X116561673Y-87645302D01*
X116465000Y-87878691D01*
X116465000Y-88619250D01*
X116623748Y-88777998D01*
X116584577Y-88777998D01*
X114885000Y-87078420D01*
X114885000Y-82581580D01*
X116465247Y-84161826D01*
X116464735Y-84748991D01*
X116697932Y-85313371D01*
X117129357Y-85745551D01*
X117693330Y-85979733D01*
X118303991Y-85980265D01*
X118868371Y-85747068D01*
X119300551Y-85315643D01*
X119534733Y-84751670D01*
X119535265Y-84141009D01*
X119302068Y-83576629D01*
X119124908Y-83399159D01*
X119259699Y-83343327D01*
X119438327Y-83164698D01*
X119535000Y-82931309D01*
X119535000Y-82190750D01*
X119376250Y-82032000D01*
X118127000Y-82032000D01*
X118127000Y-82052000D01*
X117873000Y-82052000D01*
X117873000Y-82032000D01*
X117853000Y-82032000D01*
X117853000Y-81778000D01*
X117873000Y-81778000D01*
X117873000Y-80528750D01*
X118127000Y-80528750D01*
X118127000Y-81778000D01*
X119376250Y-81778000D01*
X119535000Y-81619250D01*
X119535000Y-80878691D01*
X119438327Y-80645302D01*
X119259699Y-80466673D01*
X119026310Y-80370000D01*
X118285750Y-80370000D01*
X118127000Y-80528750D01*
X117873000Y-80528750D01*
X117714250Y-80370000D01*
X116973690Y-80370000D01*
X116740301Y-80466673D01*
X116561673Y-80645302D01*
X116465000Y-80878691D01*
X116465000Y-81619250D01*
X116623748Y-81777998D01*
X116584577Y-81777998D01*
X115635001Y-80828421D01*
X115635001Y-77748991D01*
X116464735Y-77748991D01*
X116697932Y-78313371D01*
X117129357Y-78745551D01*
X117693330Y-78979733D01*
X118303991Y-78980265D01*
X118868371Y-78747068D01*
X119300551Y-78315643D01*
X119534733Y-77751670D01*
X119535265Y-77141009D01*
X119302068Y-76576629D01*
X119124908Y-76399159D01*
X119259699Y-76343327D01*
X119438327Y-76164698D01*
X119535000Y-75931309D01*
X119535000Y-75190750D01*
X119376250Y-75032000D01*
X118127000Y-75032000D01*
X118127000Y-75052000D01*
X117873000Y-75052000D01*
X117873000Y-75032000D01*
X116623750Y-75032000D01*
X116465000Y-75190750D01*
X116465000Y-75931309D01*
X116561673Y-76164698D01*
X116740301Y-76343327D01*
X116874994Y-76399119D01*
X116699449Y-76574357D01*
X116465267Y-77138330D01*
X116464735Y-77748991D01*
X115635001Y-77748991D01*
X115635001Y-73878691D01*
X116465000Y-73878691D01*
X116465000Y-74619250D01*
X116623750Y-74778000D01*
X117873000Y-74778000D01*
X117873000Y-73528750D01*
X118127000Y-73528750D01*
X118127000Y-74778000D01*
X119376250Y-74778000D01*
X119535000Y-74619250D01*
X119535000Y-73878691D01*
X119438327Y-73645302D01*
X119259699Y-73466673D01*
X119026310Y-73370000D01*
X118285750Y-73370000D01*
X118127000Y-73528750D01*
X117873000Y-73528750D01*
X117714250Y-73370000D01*
X116973690Y-73370000D01*
X116740301Y-73466673D01*
X116561673Y-73645302D01*
X116465000Y-73878691D01*
X115635001Y-73878691D01*
X115635001Y-73250006D01*
X115635002Y-73250001D01*
X115567635Y-72911327D01*
X115458053Y-72747326D01*
X115375791Y-72624211D01*
X115375788Y-72624209D01*
X114842744Y-72091165D01*
X114793117Y-71971057D01*
X114530327Y-71707808D01*
X114186799Y-71565162D01*
X113814833Y-71564838D01*
X113799999Y-71570967D01*
X113799999Y-70748991D01*
X116464735Y-70748991D01*
X116697932Y-71313371D01*
X117129357Y-71745551D01*
X117693330Y-71979733D01*
X118303991Y-71980265D01*
X118868371Y-71747068D01*
X119300551Y-71315643D01*
X119534733Y-70751670D01*
X119535265Y-70141009D01*
X119302068Y-69576629D01*
X119124908Y-69399159D01*
X119259699Y-69343327D01*
X119438327Y-69164698D01*
X119535000Y-68931309D01*
X119535000Y-68190750D01*
X119376250Y-68032000D01*
X118127000Y-68032000D01*
X118127000Y-68052000D01*
X117873000Y-68052000D01*
X117873000Y-68032000D01*
X116623750Y-68032000D01*
X116465000Y-68190750D01*
X116465000Y-68931309D01*
X116561673Y-69164698D01*
X116740301Y-69343327D01*
X116874994Y-69399119D01*
X116699449Y-69574357D01*
X116465267Y-70138330D01*
X116464735Y-70748991D01*
X113799999Y-70748991D01*
X113799999Y-66878691D01*
X116465000Y-66878691D01*
X116465000Y-67619250D01*
X116623750Y-67778000D01*
X117873000Y-67778000D01*
X117873000Y-66528750D01*
X118127000Y-66528750D01*
X118127000Y-67778000D01*
X119376250Y-67778000D01*
X119535000Y-67619250D01*
X119535000Y-66878691D01*
X119438327Y-66645302D01*
X119259699Y-66466673D01*
X119026310Y-66370000D01*
X118285750Y-66370000D01*
X118127000Y-66528750D01*
X117873000Y-66528750D01*
X117714250Y-66370000D01*
X116973690Y-66370000D01*
X116740301Y-66466673D01*
X116561673Y-66645302D01*
X116465000Y-66878691D01*
X113799999Y-66878691D01*
X113799999Y-64616581D01*
X114086579Y-64330000D01*
X116714532Y-64330000D01*
X117129357Y-64745551D01*
X117693330Y-64979733D01*
X118303991Y-64980265D01*
X118868371Y-64747068D01*
X119300551Y-64315643D01*
X119534733Y-63751670D01*
X119535265Y-63141009D01*
X119302068Y-62576629D01*
X119124908Y-62399159D01*
X119259699Y-62343327D01*
X119438327Y-62164698D01*
X119535000Y-61931309D01*
X119535000Y-61190750D01*
X119376250Y-61032000D01*
X118127000Y-61032000D01*
X118127000Y-61052000D01*
X117873000Y-61052000D01*
X117873000Y-61032000D01*
X116623750Y-61032000D01*
X116465000Y-61190750D01*
X116465000Y-61931309D01*
X116561673Y-62164698D01*
X116740301Y-62343327D01*
X116874994Y-62399119D01*
X116713831Y-62560000D01*
X113720000Y-62560000D01*
X113381325Y-62627367D01*
X113094210Y-62819210D01*
X113094208Y-62819213D01*
X112645000Y-63268420D01*
X112645000Y-63051580D01*
X115817888Y-59878691D01*
X116465000Y-59878691D01*
X116465000Y-60619250D01*
X116623750Y-60778000D01*
X117873000Y-60778000D01*
X117873000Y-59528750D01*
X118127000Y-59528750D01*
X118127000Y-60778000D01*
X119376250Y-60778000D01*
X119535000Y-60619250D01*
X119535000Y-59878691D01*
X119438327Y-59645302D01*
X119259699Y-59466673D01*
X119026310Y-59370000D01*
X118285750Y-59370000D01*
X118127000Y-59528750D01*
X117873000Y-59528750D01*
X117714250Y-59370000D01*
X116973690Y-59370000D01*
X116740301Y-59466673D01*
X116561673Y-59645302D01*
X116465000Y-59878691D01*
X115817888Y-59878691D01*
X117716826Y-57979753D01*
X118303991Y-57980265D01*
X118868371Y-57747068D01*
X119300551Y-57315643D01*
X119534733Y-56751670D01*
X119535265Y-56141009D01*
X119302068Y-55576629D01*
X119124908Y-55399159D01*
X119259699Y-55343327D01*
X119438327Y-55164698D01*
X119535000Y-54931309D01*
X119535000Y-54190750D01*
X119376250Y-54032000D01*
X118127000Y-54032000D01*
X118127000Y-54052000D01*
X117873000Y-54052000D01*
X117873000Y-54032000D01*
X116623750Y-54032000D01*
X116465000Y-54190750D01*
X116465000Y-54931309D01*
X116561673Y-55164698D01*
X116740301Y-55343327D01*
X116874994Y-55399119D01*
X116699449Y-55574357D01*
X116465267Y-56138330D01*
X116464753Y-56728668D01*
X111894999Y-61298421D01*
X111894999Y-54990006D01*
X111895000Y-54990001D01*
X111827632Y-54651327D01*
X111827632Y-54651326D01*
X111635789Y-54364211D01*
X111635786Y-54364209D01*
X111328663Y-54057086D01*
X111293117Y-53971057D01*
X111030327Y-53707808D01*
X110686799Y-53565162D01*
X110314833Y-53564838D01*
X109971057Y-53706883D01*
X109707808Y-53969673D01*
X109565162Y-54313201D01*
X109564838Y-54685167D01*
X109706883Y-55028943D01*
X109969673Y-55292192D01*
X110124999Y-55356689D01*
X110124999Y-86345938D01*
X110099790Y-86308210D01*
X110099787Y-86308208D01*
X107769233Y-83977653D01*
X107795000Y-83848113D01*
X107795000Y-83791887D01*
X107685767Y-83242736D01*
X107374698Y-82777189D01*
X106909151Y-82466120D01*
X106360000Y-82356887D01*
X105810849Y-82466120D01*
X105345302Y-82777189D01*
X105090000Y-83159275D01*
X104834698Y-82777189D01*
X104705000Y-82690527D01*
X104705000Y-78227123D01*
X104932192Y-78000327D01*
X105074838Y-77656799D01*
X105075162Y-77284833D01*
X104933117Y-76941057D01*
X104670327Y-76677808D01*
X104354516Y-76546671D01*
X104622566Y-76367566D01*
X104868603Y-75999346D01*
X104955000Y-75565000D01*
X104955000Y-68685167D01*
X105064838Y-68685167D01*
X105115000Y-68806569D01*
X105115000Y-80193178D01*
X105065162Y-80313201D01*
X105064838Y-80685167D01*
X105206883Y-81028943D01*
X105469673Y-81292192D01*
X105813201Y-81434838D01*
X106185167Y-81435162D01*
X106528943Y-81293117D01*
X106792192Y-81030327D01*
X106934838Y-80686799D01*
X106935162Y-80314833D01*
X106885000Y-80193431D01*
X106885000Y-68806822D01*
X106934838Y-68686799D01*
X106935162Y-68314833D01*
X106793117Y-67971057D01*
X106530327Y-67707808D01*
X106186799Y-67565162D01*
X105814833Y-67564838D01*
X105471057Y-67706883D01*
X105207808Y-67969673D01*
X105065162Y-68313201D01*
X105064838Y-68685167D01*
X104955000Y-68685167D01*
X104955000Y-66902767D01*
X105104986Y-66678297D01*
X105207611Y-66895134D01*
X105622577Y-67271041D01*
X106010961Y-67431904D01*
X106233000Y-67309915D01*
X106233000Y-66167000D01*
X106487000Y-66167000D01*
X106487000Y-67309915D01*
X106709039Y-67431904D01*
X107097423Y-67271041D01*
X107512389Y-66895134D01*
X107751914Y-66389041D01*
X107630629Y-66167000D01*
X106487000Y-66167000D01*
X106233000Y-66167000D01*
X106213000Y-66167000D01*
X106213000Y-65913000D01*
X106233000Y-65913000D01*
X106233000Y-64770085D01*
X106487000Y-64770085D01*
X106487000Y-65913000D01*
X107630629Y-65913000D01*
X107751914Y-65690959D01*
X107512389Y-65184866D01*
X107097423Y-64808959D01*
X106709039Y-64648096D01*
X106487000Y-64770085D01*
X106233000Y-64770085D01*
X106010961Y-64648096D01*
X105622577Y-64808959D01*
X105207611Y-65184866D01*
X105104986Y-65401703D01*
X104834698Y-64997189D01*
X104369151Y-64686120D01*
X103820000Y-64576887D01*
X103270849Y-64686120D01*
X102805302Y-64997189D01*
X102550000Y-65379275D01*
X102294698Y-64997189D01*
X101829151Y-64686120D01*
X101280000Y-64576887D01*
X100730849Y-64686120D01*
X100265302Y-64997189D01*
X100010000Y-65379275D01*
X99754698Y-64997189D01*
X99289151Y-64686120D01*
X98740000Y-64576887D01*
X98190849Y-64686120D01*
X97725302Y-64997189D01*
X97470000Y-65379275D01*
X97214698Y-64997189D01*
X96749151Y-64686120D01*
X96200000Y-64576887D01*
X95650849Y-64686120D01*
X95185302Y-64997189D01*
X94930000Y-65379275D01*
X94674698Y-64997189D01*
X94209151Y-64686120D01*
X93660000Y-64576887D01*
X93110849Y-64686120D01*
X92645302Y-64997189D01*
X92390000Y-65379275D01*
X92134698Y-64997189D01*
X91669151Y-64686120D01*
X91120000Y-64576887D01*
X90570849Y-64686120D01*
X90105302Y-64997189D01*
X90008899Y-65141465D01*
X89983162Y-65004683D01*
X89844090Y-64788559D01*
X89680628Y-64676870D01*
X89692192Y-64665327D01*
X89742566Y-64544014D01*
X91745787Y-62540792D01*
X91745790Y-62540790D01*
X91937633Y-62253675D01*
X91942342Y-62230000D01*
X92005001Y-61915000D01*
X92005000Y-61914995D01*
X92005000Y-59549473D01*
X92134698Y-59462811D01*
X92390000Y-59080725D01*
X92645302Y-59462811D01*
X93110849Y-59773880D01*
X93660000Y-59883113D01*
X94209151Y-59773880D01*
X94674698Y-59462811D01*
X94930000Y-59080725D01*
X95185302Y-59462811D01*
X95650849Y-59773880D01*
X96200000Y-59883113D01*
X96749151Y-59773880D01*
X97214698Y-59462811D01*
X97470000Y-59080725D01*
X97725302Y-59462811D01*
X98190849Y-59773880D01*
X98740000Y-59883113D01*
X99289151Y-59773880D01*
X99754698Y-59462811D01*
X100010000Y-59080725D01*
X100265302Y-59462811D01*
X100730849Y-59773880D01*
X101280000Y-59883113D01*
X101829151Y-59773880D01*
X102294698Y-59462811D01*
X102550000Y-59080725D01*
X102805302Y-59462811D01*
X103270849Y-59773880D01*
X103820000Y-59883113D01*
X104369151Y-59773880D01*
X104834698Y-59462811D01*
X105090000Y-59080725D01*
X105345302Y-59462811D01*
X105810849Y-59773880D01*
X106360000Y-59883113D01*
X106536438Y-59848017D01*
X107827000Y-61138579D01*
X107827000Y-81481178D01*
X107777162Y-81601201D01*
X107776838Y-81973167D01*
X107918883Y-82316943D01*
X108181673Y-82580192D01*
X108525201Y-82722838D01*
X108897167Y-82723162D01*
X109240943Y-82581117D01*
X109504192Y-82318327D01*
X109646838Y-81974799D01*
X109647162Y-81602833D01*
X109597000Y-81481431D01*
X109597000Y-60772000D01*
X109529633Y-60433325D01*
X109337790Y-60146210D01*
X109337787Y-60146208D01*
X107769233Y-58577653D01*
X107795000Y-58448113D01*
X107795000Y-58391887D01*
X107685767Y-57842736D01*
X107374698Y-57377189D01*
X106909151Y-57066120D01*
X106360000Y-56956887D01*
X105810849Y-57066120D01*
X105345302Y-57377189D01*
X105090000Y-57759275D01*
X104834698Y-57377189D01*
X104369151Y-57066120D01*
X103820000Y-56956887D01*
X103270849Y-57066120D01*
X102805302Y-57377189D01*
X102550000Y-57759275D01*
X102294698Y-57377189D01*
X101829151Y-57066120D01*
X101280000Y-56956887D01*
X100730849Y-57066120D01*
X100265302Y-57377189D01*
X100010000Y-57759275D01*
X99754698Y-57377189D01*
X99289151Y-57066120D01*
X98740000Y-56956887D01*
X98190849Y-57066120D01*
X97725302Y-57377189D01*
X97470000Y-57759275D01*
X97214698Y-57377189D01*
X97085000Y-57290527D01*
X97085000Y-55385000D01*
X105633420Y-55385000D01*
X107157255Y-56908834D01*
X107206883Y-57028943D01*
X107469673Y-57292192D01*
X107813201Y-57434838D01*
X108185167Y-57435162D01*
X108528943Y-57293117D01*
X108792192Y-57030327D01*
X108934838Y-56686799D01*
X108935162Y-56314833D01*
X108793117Y-55971057D01*
X108530327Y-55707808D01*
X108409013Y-55657434D01*
X106625790Y-53874210D01*
X106541378Y-53817808D01*
X106338675Y-53682367D01*
X106282484Y-53671190D01*
X106000000Y-53614999D01*
X105999995Y-53615000D01*
X96500005Y-53615000D01*
X96500000Y-53614999D01*
X96217516Y-53671190D01*
X96161325Y-53682367D01*
X95874210Y-53874210D01*
X95874208Y-53874213D01*
X95574210Y-54174210D01*
X95382367Y-54461325D01*
X95382367Y-54461326D01*
X95314999Y-54800000D01*
X95315000Y-54800005D01*
X95315000Y-57290527D01*
X95185302Y-57377189D01*
X94930000Y-57759275D01*
X94674698Y-57377189D01*
X94209151Y-57066120D01*
X93660000Y-56956887D01*
X93110849Y-57066120D01*
X92645302Y-57377189D01*
X92390000Y-57759275D01*
X92134698Y-57377189D01*
X91669151Y-57066120D01*
X91120000Y-56956887D01*
X90570849Y-57066120D01*
X90535000Y-57090074D01*
X90535000Y-52878691D01*
X116465000Y-52878691D01*
X116465000Y-53619250D01*
X116623750Y-53778000D01*
X117873000Y-53778000D01*
X117873000Y-52528750D01*
X118127000Y-52528750D01*
X118127000Y-53778000D01*
X119376250Y-53778000D01*
X119535000Y-53619250D01*
X119535000Y-52878691D01*
X119438327Y-52645302D01*
X119259699Y-52466673D01*
X119026310Y-52370000D01*
X118285750Y-52370000D01*
X118127000Y-52528750D01*
X117873000Y-52528750D01*
X117714250Y-52370000D01*
X116973690Y-52370000D01*
X116740301Y-52466673D01*
X116561673Y-52645302D01*
X116465000Y-52878691D01*
X90535000Y-52878691D01*
X90535000Y-51435000D01*
X90410543Y-50809313D01*
X90344184Y-50710000D01*
X126825815Y-50710000D01*
X126759457Y-50809312D01*
X126634999Y-51435000D01*
X126759457Y-52060688D01*
X127113880Y-52591120D01*
X127585000Y-53062240D01*
X127585000Y-68580000D01*
X127709457Y-69205687D01*
X127772560Y-69300128D01*
X127772560Y-69380000D01*
X127816838Y-69615317D01*
X127955910Y-69831441D01*
X128168110Y-69976431D01*
X128323089Y-70007815D01*
X128177189Y-70105302D01*
X127866120Y-70570849D01*
X127756887Y-71120000D01*
X127866120Y-71669151D01*
X128177189Y-72134698D01*
X128559275Y-72390000D01*
X128177189Y-72645302D01*
X127866120Y-73110849D01*
X127756887Y-73660000D01*
X127866120Y-74209151D01*
X128177189Y-74674698D01*
X128559275Y-74930000D01*
X128177189Y-75185302D01*
X127866120Y-75650849D01*
X127756887Y-76200000D01*
X127866120Y-76749151D01*
X128177189Y-77214698D01*
X128559275Y-77470000D01*
X128177189Y-77725302D01*
X127866120Y-78190849D01*
X127756887Y-78740000D01*
X127866120Y-79289151D01*
X128177189Y-79754698D01*
X128559275Y-80010000D01*
X128177189Y-80265302D01*
X127866120Y-80730849D01*
X127756887Y-81280000D01*
X127866120Y-81829151D01*
X128177189Y-82294698D01*
X128559275Y-82550000D01*
X128177189Y-82805302D01*
X127866120Y-83270849D01*
X127756887Y-83820000D01*
X127866120Y-84369151D01*
X128177189Y-84834698D01*
X128559275Y-85090000D01*
X128177189Y-85345302D01*
X127866120Y-85810849D01*
X127756887Y-86360000D01*
X127866120Y-86909151D01*
X128177189Y-87374698D01*
X128559275Y-87630000D01*
X128177189Y-87885302D01*
X127866120Y-88350849D01*
X127756887Y-88900000D01*
X127866120Y-89449151D01*
X128177189Y-89914698D01*
X128581703Y-90184986D01*
X128364866Y-90287611D01*
X127988959Y-90702577D01*
X127828096Y-91090961D01*
X127950085Y-91313000D01*
X129093000Y-91313000D01*
X129093000Y-91293000D01*
X129347000Y-91293000D01*
X129347000Y-91313000D01*
X130489915Y-91313000D01*
X130611904Y-91090961D01*
X130451041Y-90702577D01*
X130075134Y-90287611D01*
X129858297Y-90184986D01*
X130262811Y-89914698D01*
X130573880Y-89449151D01*
X130683113Y-88900000D01*
X130573880Y-88350849D01*
X130262811Y-87885302D01*
X129880725Y-87630000D01*
X130262811Y-87374698D01*
X130573880Y-86909151D01*
X130683113Y-86360000D01*
X130573880Y-85810849D01*
X130262811Y-85345302D01*
X129880725Y-85090000D01*
X130262811Y-84834698D01*
X130573880Y-84369151D01*
X130683113Y-83820000D01*
X130573880Y-83270849D01*
X130262811Y-82805302D01*
X129880725Y-82550000D01*
X130262811Y-82294698D01*
X130573880Y-81829151D01*
X130683113Y-81280000D01*
X130573880Y-80730849D01*
X130262811Y-80265302D01*
X129880725Y-80010000D01*
X130262811Y-79754698D01*
X130573880Y-79289151D01*
X130683113Y-78740000D01*
X130573880Y-78190849D01*
X130262811Y-77725302D01*
X129880725Y-77470000D01*
X130262811Y-77214698D01*
X130573880Y-76749151D01*
X130683113Y-76200000D01*
X130573880Y-75650849D01*
X130262811Y-75185302D01*
X129880725Y-74930000D01*
X130262811Y-74674698D01*
X130573880Y-74209151D01*
X130683113Y-73660000D01*
X130573880Y-73110849D01*
X130262811Y-72645302D01*
X129880725Y-72390000D01*
X130262811Y-72134698D01*
X130573880Y-71669151D01*
X130683113Y-71120000D01*
X130573880Y-70570849D01*
X130262811Y-70105302D01*
X130118535Y-70008899D01*
X130255317Y-69983162D01*
X130471441Y-69844090D01*
X130616431Y-69631890D01*
X130667440Y-69380000D01*
X130667440Y-69300128D01*
X130730543Y-69205687D01*
X130855000Y-68580000D01*
X130855000Y-52385005D01*
X130855001Y-52385000D01*
X130730543Y-51759312D01*
X130376120Y-51228880D01*
X129857240Y-50710000D01*
X142873000Y-50710000D01*
X142873000Y-56150000D01*
X138745000Y-56150000D01*
X138119313Y-56274457D01*
X138099703Y-56287560D01*
X137895000Y-56287560D01*
X137659683Y-56331838D01*
X137443559Y-56470910D01*
X137298569Y-56683110D01*
X137247560Y-56935000D01*
X137247560Y-57139703D01*
X137234457Y-57159313D01*
X137110000Y-57785000D01*
X137234457Y-58410687D01*
X137247560Y-58430297D01*
X137247560Y-58635000D01*
X137291838Y-58870317D01*
X137430910Y-59086441D01*
X137643110Y-59231431D01*
X137895000Y-59282440D01*
X138099703Y-59282440D01*
X138119313Y-59295543D01*
X138745000Y-59420000D01*
X142873000Y-59420000D01*
X142873000Y-109290000D01*
X50710000Y-109290000D01*
X50710000Y-88255000D01*
X53485907Y-88255000D01*
X53598946Y-88823285D01*
X53920853Y-89305054D01*
X54250026Y-89525000D01*
X53920853Y-89744946D01*
X53598946Y-90226715D01*
X53485907Y-90795000D01*
X53598946Y-91363285D01*
X53920853Y-91845054D01*
X54250026Y-92065000D01*
X53920853Y-92284946D01*
X53598946Y-92766715D01*
X53485907Y-93335000D01*
X53598946Y-93903285D01*
X53920853Y-94385054D01*
X54250026Y-94605000D01*
X53920853Y-94824946D01*
X53598946Y-95306715D01*
X53485907Y-95875000D01*
X53598946Y-96443285D01*
X53920853Y-96925054D01*
X54250026Y-97145000D01*
X53920853Y-97364946D01*
X53598946Y-97846715D01*
X53485907Y-98415000D01*
X53598946Y-98983285D01*
X53920853Y-99465054D01*
X54250026Y-99685000D01*
X53920853Y-99904946D01*
X53598946Y-100386715D01*
X53485907Y-100955000D01*
X53598946Y-101523285D01*
X53920853Y-102005054D01*
X54250026Y-102225000D01*
X53920853Y-102444946D01*
X53598946Y-102926715D01*
X53485907Y-103495000D01*
X53598946Y-104063285D01*
X53920853Y-104545054D01*
X54402622Y-104866961D01*
X54970907Y-104980000D01*
X55029093Y-104980000D01*
X55597378Y-104866961D01*
X56079147Y-104545054D01*
X56401054Y-104063285D01*
X56514093Y-103495000D01*
X56470539Y-103276041D01*
X60436579Y-99310000D01*
X63018554Y-99310000D01*
X63046838Y-99460317D01*
X63185910Y-99676441D01*
X63398110Y-99821431D01*
X63650000Y-99872440D01*
X65250000Y-99872440D01*
X65485317Y-99828162D01*
X65701441Y-99689090D01*
X65846431Y-99476890D01*
X65877815Y-99321911D01*
X65975302Y-99467811D01*
X66440849Y-99778880D01*
X66812717Y-99852849D01*
X69665000Y-102705132D01*
X69665000Y-105258808D01*
X69498559Y-105365910D01*
X69353569Y-105578110D01*
X69302560Y-105830000D01*
X69302560Y-107530000D01*
X69346838Y-107765317D01*
X69485910Y-107981441D01*
X69698110Y-108126431D01*
X69950000Y-108177440D01*
X71650000Y-108177440D01*
X71885317Y-108133162D01*
X72101441Y-107994090D01*
X72246431Y-107781890D01*
X72297440Y-107530000D01*
X72297440Y-105830000D01*
X88418560Y-105830000D01*
X88418560Y-107530000D01*
X88462838Y-107765317D01*
X88601910Y-107981441D01*
X88814110Y-108126431D01*
X89066000Y-108177440D01*
X90766000Y-108177440D01*
X91001317Y-108133162D01*
X91217441Y-107994090D01*
X91362431Y-107781890D01*
X91413440Y-107530000D01*
X91413440Y-105830000D01*
X91369162Y-105594683D01*
X91230090Y-105378559D01*
X91017890Y-105233569D01*
X90766000Y-105182560D01*
X89066000Y-105182560D01*
X88830683Y-105226838D01*
X88614559Y-105365910D01*
X88469569Y-105578110D01*
X88418560Y-105830000D01*
X72297440Y-105830000D01*
X72253162Y-105594683D01*
X72114090Y-105378559D01*
X71935000Y-105256192D01*
X71935000Y-102705132D01*
X74787283Y-99852849D01*
X75159151Y-99778880D01*
X75624698Y-99467811D01*
X75880000Y-99085725D01*
X76135302Y-99467811D01*
X76600849Y-99778880D01*
X77150000Y-99888113D01*
X77699151Y-99778880D01*
X78164698Y-99467811D01*
X78434986Y-99063297D01*
X78537611Y-99280134D01*
X78952577Y-99656041D01*
X79340961Y-99816904D01*
X79563000Y-99694915D01*
X79563000Y-98552000D01*
X79817000Y-98552000D01*
X79817000Y-99694915D01*
X80039039Y-99816904D01*
X80427423Y-99656041D01*
X80842389Y-99280134D01*
X81081914Y-98774041D01*
X80960629Y-98552000D01*
X79817000Y-98552000D01*
X79563000Y-98552000D01*
X79543000Y-98552000D01*
X79543000Y-98298000D01*
X79563000Y-98298000D01*
X79563000Y-97155085D01*
X79817000Y-97155085D01*
X79817000Y-98298000D01*
X80960629Y-98298000D01*
X81081914Y-98075959D01*
X80842389Y-97569866D01*
X80427423Y-97193959D01*
X80039039Y-97033096D01*
X79817000Y-97155085D01*
X79563000Y-97155085D01*
X79340961Y-97033096D01*
X78952577Y-97193959D01*
X78537611Y-97569866D01*
X78434986Y-97786703D01*
X78164698Y-97382189D01*
X78035000Y-97295527D01*
X78035000Y-96007123D01*
X78262192Y-95780327D01*
X78404838Y-95436799D01*
X78405162Y-95064833D01*
X78263117Y-94721057D01*
X78000327Y-94457808D01*
X77656799Y-94315162D01*
X77284833Y-94314838D01*
X76941057Y-94456883D01*
X76677808Y-94719673D01*
X76627434Y-94840986D01*
X76524210Y-94944210D01*
X76332367Y-95231325D01*
X76332367Y-95231326D01*
X76264999Y-95570000D01*
X76265000Y-95570005D01*
X76265000Y-97295527D01*
X76135302Y-97382189D01*
X75880000Y-97764275D01*
X75745000Y-97562233D01*
X75745000Y-91667767D01*
X75880000Y-91465725D01*
X76135302Y-91847811D01*
X76600849Y-92158880D01*
X77150000Y-92268113D01*
X77699151Y-92158880D01*
X78164698Y-91847811D01*
X78420000Y-91465725D01*
X78675302Y-91847811D01*
X79140849Y-92158880D01*
X79690000Y-92268113D01*
X80239151Y-92158880D01*
X80704698Y-91847811D01*
X81015767Y-91382264D01*
X81125000Y-90833113D01*
X81125000Y-90776887D01*
X81015767Y-90227736D01*
X80704698Y-89762189D01*
X80239151Y-89451120D01*
X79690000Y-89341887D01*
X79140849Y-89451120D01*
X78675302Y-89762189D01*
X78420000Y-90144275D01*
X78164698Y-89762189D01*
X77699151Y-89451120D01*
X77150000Y-89341887D01*
X76600849Y-89451120D01*
X76135302Y-89762189D01*
X75880000Y-90144275D01*
X75745000Y-89942233D01*
X75745000Y-87222767D01*
X75880000Y-87020725D01*
X76135302Y-87402811D01*
X76600849Y-87713880D01*
X77150000Y-87823113D01*
X77699151Y-87713880D01*
X78164698Y-87402811D01*
X78434986Y-86998297D01*
X78537611Y-87215134D01*
X78952577Y-87591041D01*
X79340961Y-87751904D01*
X79563000Y-87629915D01*
X79563000Y-86487000D01*
X79543000Y-86487000D01*
X79543000Y-86233000D01*
X79563000Y-86233000D01*
X79563000Y-85090085D01*
X79340961Y-84968096D01*
X78952577Y-85128959D01*
X78537611Y-85504866D01*
X78434986Y-85721703D01*
X78164698Y-85317189D01*
X78035000Y-85230527D01*
X78035000Y-84506580D01*
X81688834Y-80852745D01*
X81808943Y-80803117D01*
X82072192Y-80540327D01*
X82214838Y-80196799D01*
X82215162Y-79824833D01*
X82073117Y-79481057D01*
X81810327Y-79217808D01*
X81466799Y-79075162D01*
X81094833Y-79074838D01*
X81061226Y-79088724D01*
X81125000Y-78768113D01*
X81125000Y-78711887D01*
X81015767Y-78162736D01*
X80704698Y-77697189D01*
X80575000Y-77610527D01*
X80575000Y-66162123D01*
X80802192Y-65935327D01*
X80944838Y-65591799D01*
X80945162Y-65219833D01*
X80803117Y-64876057D01*
X80540327Y-64612808D01*
X80196799Y-64470162D01*
X79824833Y-64469838D01*
X79481057Y-64611883D01*
X79217808Y-64874673D01*
X79167434Y-64995986D01*
X79064210Y-65099210D01*
X78872367Y-65386325D01*
X78872367Y-65386326D01*
X78804999Y-65725000D01*
X78805000Y-65725005D01*
X78805000Y-77610527D01*
X78675302Y-77697189D01*
X78420000Y-78079275D01*
X78164698Y-77697189D01*
X77699151Y-77386120D01*
X77150000Y-77276887D01*
X76600849Y-77386120D01*
X76135302Y-77697189D01*
X75880000Y-78079275D01*
X75745000Y-77877233D01*
X75745000Y-75565000D01*
X75658603Y-75130654D01*
X75412566Y-74762434D01*
X75044346Y-74516397D01*
X74610000Y-74430000D01*
X74175654Y-74516397D01*
X73807434Y-74762434D01*
X73561397Y-75130654D01*
X73475000Y-75565000D01*
X73475000Y-77877233D01*
X73340000Y-78079275D01*
X73084698Y-77697189D01*
X72955000Y-77610527D01*
X72955000Y-61717123D01*
X73182192Y-61490327D01*
X73324838Y-61146799D01*
X73325162Y-60774833D01*
X73183117Y-60431057D01*
X72920327Y-60167808D01*
X72576799Y-60025162D01*
X72204833Y-60024838D01*
X71861057Y-60166883D01*
X71597808Y-60429673D01*
X71547434Y-60550986D01*
X71444210Y-60654210D01*
X71252367Y-60941325D01*
X71252367Y-60941326D01*
X71184999Y-61280000D01*
X71185000Y-61280005D01*
X71185000Y-77610527D01*
X71055302Y-77697189D01*
X70800000Y-78079275D01*
X70544698Y-77697189D01*
X70100000Y-77400051D01*
X70100000Y-70791822D01*
X70149838Y-70671799D01*
X70150162Y-70299833D01*
X70008117Y-69956057D01*
X69745327Y-69692808D01*
X69401799Y-69550162D01*
X69029833Y-69549838D01*
X68686057Y-69691883D01*
X68422808Y-69954673D01*
X68280162Y-70298201D01*
X68279838Y-70670167D01*
X68330000Y-70791569D01*
X68330000Y-77974513D01*
X68260000Y-78079275D01*
X68004698Y-77697189D01*
X67539151Y-77386120D01*
X66990000Y-77276887D01*
X66440849Y-77386120D01*
X65975302Y-77697189D01*
X65720000Y-78079275D01*
X65585000Y-77877233D01*
X65585000Y-64323471D01*
X65853201Y-64434838D01*
X66225167Y-64435162D01*
X66425000Y-64352593D01*
X66425000Y-65733178D01*
X66375162Y-65853201D01*
X66374838Y-66225167D01*
X66516883Y-66568943D01*
X66779673Y-66832192D01*
X67123201Y-66974838D01*
X67495167Y-66975162D01*
X67695000Y-66892593D01*
X67695000Y-67003178D01*
X67645162Y-67123201D01*
X67644838Y-67495167D01*
X67786883Y-67838943D01*
X68049673Y-68102192D01*
X68393201Y-68244838D01*
X68765167Y-68245162D01*
X69108943Y-68103117D01*
X69372192Y-67840327D01*
X69514838Y-67496799D01*
X69515162Y-67124833D01*
X69465000Y-67003431D01*
X69465000Y-62536822D01*
X69514838Y-62416799D01*
X69515162Y-62044833D01*
X69373117Y-61701057D01*
X69110327Y-61437808D01*
X68766799Y-61295162D01*
X68394833Y-61294838D01*
X68195000Y-61377407D01*
X68195000Y-54916822D01*
X68244838Y-54796799D01*
X68245162Y-54424833D01*
X68103117Y-54081057D01*
X67840327Y-53817808D01*
X67496799Y-53675162D01*
X67124833Y-53674838D01*
X66925000Y-53757407D01*
X66925000Y-53646822D01*
X66974838Y-53526799D01*
X66975162Y-53154833D01*
X66833117Y-52811057D01*
X66570327Y-52547808D01*
X66226799Y-52405162D01*
X65854833Y-52404838D01*
X65511057Y-52546883D01*
X65247808Y-52809673D01*
X65105162Y-53153201D01*
X65104838Y-53525167D01*
X65155000Y-53646569D01*
X65155000Y-57361582D01*
X64770000Y-57285001D01*
X64335654Y-57371397D01*
X63967434Y-57617434D01*
X63647434Y-57937434D01*
X63401397Y-58305654D01*
X63315000Y-58740000D01*
X63315000Y-77877233D01*
X63124233Y-78162736D01*
X63050264Y-78534604D01*
X59522434Y-82062434D01*
X59276397Y-82430654D01*
X59190000Y-82865000D01*
X59190000Y-90805000D01*
X59276397Y-91239346D01*
X59517379Y-91600001D01*
X56242886Y-91600001D01*
X56401054Y-91363285D01*
X56514093Y-90795000D01*
X56401054Y-90226715D01*
X56079147Y-89744946D01*
X55749974Y-89525000D01*
X56079147Y-89305054D01*
X56401054Y-88823285D01*
X56514093Y-88255000D01*
X56401054Y-87686715D01*
X56079147Y-87204946D01*
X56037548Y-87177150D01*
X56085317Y-87168162D01*
X56301441Y-87029090D01*
X56446431Y-86816890D01*
X56488327Y-86610000D01*
X57149995Y-86610000D01*
X57150000Y-86610001D01*
X57432484Y-86553810D01*
X57488675Y-86542633D01*
X57775790Y-86350790D01*
X57775791Y-86350789D01*
X58410787Y-85715792D01*
X58410790Y-85715790D01*
X58551724Y-85504866D01*
X58602634Y-85428674D01*
X58670001Y-85090000D01*
X58670000Y-85089995D01*
X58670000Y-70791822D01*
X58719838Y-70671799D01*
X58720162Y-70299833D01*
X58578117Y-69956057D01*
X58315327Y-69692808D01*
X57971799Y-69550162D01*
X57599833Y-69549838D01*
X57256057Y-69691883D01*
X56992808Y-69954673D01*
X56850162Y-70298201D01*
X56849838Y-70670167D01*
X56900000Y-70791569D01*
X56900000Y-84723421D01*
X56783420Y-84840000D01*
X56492736Y-84840000D01*
X56453162Y-84629683D01*
X56314090Y-84413559D01*
X56101890Y-84268569D01*
X55850000Y-84217560D01*
X54150000Y-84217560D01*
X53914683Y-84261838D01*
X53698559Y-84400910D01*
X53553569Y-84613110D01*
X53502560Y-84865000D01*
X53502560Y-86565000D01*
X53546838Y-86800317D01*
X53685910Y-87016441D01*
X53898110Y-87161431D01*
X53965541Y-87175086D01*
X53920853Y-87204946D01*
X53598946Y-87686715D01*
X53485907Y-88255000D01*
X50710000Y-88255000D01*
X50710000Y-66675000D01*
X53410907Y-66675000D01*
X53523946Y-67243285D01*
X53845853Y-67725054D01*
X54175026Y-67945000D01*
X53845853Y-68164946D01*
X53523946Y-68646715D01*
X53410907Y-69215000D01*
X53523946Y-69783285D01*
X53845853Y-70265054D01*
X54175026Y-70485000D01*
X53845853Y-70704946D01*
X53523946Y-71186715D01*
X53410907Y-71755000D01*
X53523946Y-72323285D01*
X53845853Y-72805054D01*
X54175026Y-73025000D01*
X53845853Y-73244946D01*
X53523946Y-73726715D01*
X53410907Y-74295000D01*
X53523946Y-74863285D01*
X53845853Y-75345054D01*
X54175026Y-75565000D01*
X53845853Y-75784946D01*
X53523946Y-76266715D01*
X53410907Y-76835000D01*
X53523946Y-77403285D01*
X53845853Y-77885054D01*
X54175026Y-78105000D01*
X53845853Y-78324946D01*
X53523946Y-78806715D01*
X53410907Y-79375000D01*
X53523946Y-79943285D01*
X53845853Y-80425054D01*
X54175026Y-80645000D01*
X53845853Y-80864946D01*
X53523946Y-81346715D01*
X53410907Y-81915000D01*
X53523946Y-82483285D01*
X53845853Y-82965054D01*
X54327622Y-83286961D01*
X54895907Y-83400000D01*
X54954093Y-83400000D01*
X55522378Y-83286961D01*
X56004147Y-82965054D01*
X56326054Y-82483285D01*
X56439093Y-81915000D01*
X56326054Y-81346715D01*
X56004147Y-80864946D01*
X55674974Y-80645000D01*
X56004147Y-80425054D01*
X56326054Y-79943285D01*
X56439093Y-79375000D01*
X56326054Y-78806715D01*
X56004147Y-78324946D01*
X55674974Y-78105000D01*
X56004147Y-77885054D01*
X56326054Y-77403285D01*
X56439093Y-76835000D01*
X56326054Y-76266715D01*
X56004147Y-75784946D01*
X55674974Y-75565000D01*
X56004147Y-75345054D01*
X56326054Y-74863285D01*
X56439093Y-74295000D01*
X56326054Y-73726715D01*
X56004147Y-73244946D01*
X55674974Y-73025000D01*
X56004147Y-72805054D01*
X56326054Y-72323285D01*
X56439093Y-71755000D01*
X56326054Y-71186715D01*
X56004147Y-70704946D01*
X55674974Y-70485000D01*
X56004147Y-70265054D01*
X56326054Y-69783285D01*
X56439093Y-69215000D01*
X56326054Y-68646715D01*
X56004147Y-68164946D01*
X55674974Y-67945000D01*
X56004147Y-67725054D01*
X56326054Y-67243285D01*
X56439093Y-66675000D01*
X56326054Y-66106715D01*
X56004147Y-65624946D01*
X55962548Y-65597150D01*
X56010317Y-65588162D01*
X56226441Y-65449090D01*
X56371431Y-65236890D01*
X56422440Y-64985000D01*
X56422440Y-63285000D01*
X56378162Y-63049683D01*
X56239090Y-62833559D01*
X56026890Y-62688569D01*
X55775000Y-62637560D01*
X54075000Y-62637560D01*
X53839683Y-62681838D01*
X53623559Y-62820910D01*
X53478569Y-63033110D01*
X53427560Y-63285000D01*
X53427560Y-64985000D01*
X53471838Y-65220317D01*
X53610910Y-65436441D01*
X53823110Y-65581431D01*
X53890541Y-65595086D01*
X53845853Y-65624946D01*
X53523946Y-66106715D01*
X53410907Y-66675000D01*
X50710000Y-66675000D01*
X50710000Y-60698025D01*
X50795302Y-60783327D01*
X51028691Y-60880000D01*
X53369250Y-60880000D01*
X53528000Y-60721250D01*
X53528000Y-55372000D01*
X53782000Y-55372000D01*
X53782000Y-60721250D01*
X53940750Y-60880000D01*
X56281309Y-60880000D01*
X56514698Y-60783327D01*
X56693327Y-60604699D01*
X56790000Y-60371310D01*
X56790000Y-58070750D01*
X59790000Y-58070750D01*
X59790000Y-58761310D01*
X59886673Y-58994699D01*
X60065302Y-59173327D01*
X60298691Y-59270000D01*
X60989250Y-59270000D01*
X61148000Y-59111250D01*
X61148000Y-57912000D01*
X61402000Y-57912000D01*
X61402000Y-59111250D01*
X61560750Y-59270000D01*
X62251309Y-59270000D01*
X62484698Y-59173327D01*
X62663327Y-58994699D01*
X62760000Y-58761310D01*
X62760000Y-58070750D01*
X62601250Y-57912000D01*
X61402000Y-57912000D01*
X61148000Y-57912000D01*
X59948750Y-57912000D01*
X59790000Y-58070750D01*
X56790000Y-58070750D01*
X56790000Y-56808690D01*
X59790000Y-56808690D01*
X59790000Y-57499250D01*
X59948750Y-57658000D01*
X61148000Y-57658000D01*
X61148000Y-56458750D01*
X61402000Y-56458750D01*
X61402000Y-57658000D01*
X62601250Y-57658000D01*
X62760000Y-57499250D01*
X62760000Y-56808690D01*
X62663327Y-56575301D01*
X62484698Y-56396673D01*
X62251309Y-56300000D01*
X61560750Y-56300000D01*
X61402000Y-56458750D01*
X61148000Y-56458750D01*
X60989250Y-56300000D01*
X60298691Y-56300000D01*
X60065302Y-56396673D01*
X59886673Y-56575301D01*
X59790000Y-56808690D01*
X56790000Y-56808690D01*
X56790000Y-55530750D01*
X56631250Y-55372000D01*
X53782000Y-55372000D01*
X53528000Y-55372000D01*
X53508000Y-55372000D01*
X53508000Y-55118000D01*
X53528000Y-55118000D01*
X53528000Y-55098000D01*
X53782000Y-55098000D01*
X53782000Y-55118000D01*
X56631250Y-55118000D01*
X56790000Y-54959250D01*
X56790000Y-50710000D01*
X87455816Y-50710000D01*
X87389457Y-50809313D01*
X87389457Y-50809313D01*
G37*
X87389457Y-50809313D02*
X87265000Y-51435000D01*
X87265000Y-57501661D01*
X87069457Y-57794312D01*
X86944999Y-58420000D01*
X86949955Y-58444913D01*
X86277433Y-59117435D01*
X86031396Y-59485655D01*
X85944999Y-59920001D01*
X85944999Y-81188629D01*
X86031396Y-81622975D01*
X86058168Y-81663043D01*
X85831057Y-81756883D01*
X85567808Y-82019673D01*
X85425162Y-82363201D01*
X85424838Y-82735167D01*
X85475000Y-82856569D01*
X85475000Y-82967463D01*
X85276799Y-82885162D01*
X84904833Y-82884838D01*
X84705000Y-82967407D01*
X84705000Y-79741580D01*
X84863835Y-79582745D01*
X84983943Y-79533117D01*
X85247192Y-79270327D01*
X85389838Y-78926799D01*
X85390162Y-78554833D01*
X85248117Y-78211057D01*
X84985327Y-77947808D01*
X84641799Y-77805162D01*
X84269833Y-77804838D01*
X84004990Y-77914269D01*
X84004990Y-69803014D01*
X84028943Y-69793117D01*
X84292192Y-69530327D01*
X84434838Y-69186799D01*
X84435162Y-68814833D01*
X84293117Y-68471057D01*
X84030327Y-68207808D01*
X83686799Y-68065162D01*
X83314833Y-68064838D01*
X82971057Y-68206883D01*
X82707808Y-68469673D01*
X82657434Y-68590986D01*
X82494200Y-68754220D01*
X82302357Y-69041335D01*
X82302357Y-69041336D01*
X82234989Y-69380010D01*
X82234990Y-69380015D01*
X82234990Y-85013431D01*
X81591164Y-85657256D01*
X81471057Y-85706883D01*
X81207808Y-85969673D01*
X81098465Y-86232998D01*
X80960630Y-86232998D01*
X81081914Y-86010959D01*
X80842389Y-85504866D01*
X80427423Y-85128959D01*
X80039039Y-84968096D01*
X79817000Y-85090085D01*
X79817000Y-86233000D01*
X79837000Y-86233000D01*
X79837000Y-86487000D01*
X79817000Y-86487000D01*
X79817000Y-87629915D01*
X80039039Y-87751904D01*
X80427423Y-87591041D01*
X80842389Y-87215134D01*
X81078064Y-86717176D01*
X81206883Y-87028943D01*
X81469673Y-87292192D01*
X81813201Y-87434838D01*
X82185167Y-87435162D01*
X82528943Y-87293117D01*
X82792192Y-87030327D01*
X82842566Y-86909014D01*
X82935000Y-86816580D01*
X82935000Y-87958178D01*
X82885162Y-88078201D01*
X82884838Y-88450167D01*
X83026883Y-88793943D01*
X83289673Y-89057192D01*
X83633201Y-89199838D01*
X84005167Y-89200162D01*
X84205000Y-89117593D01*
X84205000Y-92709995D01*
X84204999Y-92710000D01*
X84258759Y-92980265D01*
X84272367Y-93048675D01*
X84378578Y-93207632D01*
X84464210Y-93335790D01*
X85517255Y-94388834D01*
X85566883Y-94508943D01*
X85829673Y-94772192D01*
X86173201Y-94914838D01*
X86545167Y-94915162D01*
X86745000Y-94832593D01*
X86745000Y-99388178D01*
X86695162Y-99508201D01*
X86694838Y-99880167D01*
X86836883Y-100223943D01*
X87099673Y-100487192D01*
X87443201Y-100629838D01*
X87815167Y-100630162D01*
X88158943Y-100488117D01*
X88422192Y-100225327D01*
X88564838Y-99881799D01*
X88565162Y-99509833D01*
X88515000Y-99388431D01*
X88515000Y-92887440D01*
X89380000Y-92887440D01*
X89615317Y-92843162D01*
X89831441Y-92704090D01*
X89976431Y-92491890D01*
X90007815Y-92336911D01*
X90105302Y-92482811D01*
X90235000Y-92569473D01*
X90235000Y-94315056D01*
X89984833Y-94314838D01*
X89641057Y-94456883D01*
X89377808Y-94719673D01*
X89235162Y-95063201D01*
X89234838Y-95435167D01*
X89376883Y-95778943D01*
X89639673Y-96042192D01*
X89983201Y-96184838D01*
X90355167Y-96185162D01*
X90476569Y-96135000D01*
X90804995Y-96135000D01*
X90805000Y-96135001D01*
X91122731Y-96071799D01*
X91143675Y-96067633D01*
X91430790Y-95875790D01*
X91745787Y-95560792D01*
X91745790Y-95560790D01*
X91937633Y-95273675D01*
X91973794Y-95091883D01*
X92005001Y-94935000D01*
X92005000Y-94934995D01*
X92005000Y-92569473D01*
X92134698Y-92482811D01*
X92390000Y-92100725D01*
X92645302Y-92482811D01*
X93110849Y-92793880D01*
X93660000Y-92903113D01*
X94209151Y-92793880D01*
X94674698Y-92482811D01*
X94930000Y-92100725D01*
X95000000Y-92205487D01*
X95000000Y-98118178D01*
X94950162Y-98238201D01*
X94949838Y-98610167D01*
X95091883Y-98953943D01*
X95354673Y-99217192D01*
X95698201Y-99359838D01*
X96070167Y-99360162D01*
X96413943Y-99218117D01*
X96677192Y-98955327D01*
X96819838Y-98611799D01*
X96820162Y-98239833D01*
X96770000Y-98118431D01*
X96770000Y-92779949D01*
X97214698Y-92482811D01*
X97470000Y-92100725D01*
X97725302Y-92482811D01*
X98190849Y-92793880D01*
X98740000Y-92903113D01*
X99289151Y-92793880D01*
X99754698Y-92482811D01*
X100010000Y-92100725D01*
X100265302Y-92482811D01*
X100395000Y-92569473D01*
X100395000Y-95132868D01*
X100172808Y-95354673D01*
X100030162Y-95698201D01*
X100029838Y-96070167D01*
X100171883Y-96413943D01*
X100434673Y-96677192D01*
X100778201Y-96819838D01*
X101150167Y-96820162D01*
X101493943Y-96678117D01*
X101757192Y-96415327D01*
X101807566Y-96294013D01*
X101905787Y-96195792D01*
X101905790Y-96195790D01*
X102097633Y-95908675D01*
X102104174Y-95875790D01*
X102165001Y-95570000D01*
X102165000Y-95569995D01*
X102165000Y-92569473D01*
X102294698Y-92482811D01*
X102550000Y-92100725D01*
X102805302Y-92482811D01*
X103270849Y-92793880D01*
X103820000Y-92903113D01*
X104369151Y-92793880D01*
X104834698Y-92482811D01*
X105104986Y-92078297D01*
X105207611Y-92295134D01*
X105622577Y-92671041D01*
X106010961Y-92831904D01*
X106233000Y-92709915D01*
X106233000Y-91567000D01*
X106487000Y-91567000D01*
X106487000Y-92709915D01*
X106709039Y-92831904D01*
X107097423Y-92671041D01*
X107512389Y-92295134D01*
X107751914Y-91789041D01*
X107630629Y-91567000D01*
X106487000Y-91567000D01*
X106233000Y-91567000D01*
X106213000Y-91567000D01*
X106213000Y-91313000D01*
X106233000Y-91313000D01*
X106233000Y-90170085D01*
X106487000Y-90170085D01*
X106487000Y-91313000D01*
X107630629Y-91313000D01*
X107751914Y-91090959D01*
X107512389Y-90584866D01*
X107097423Y-90208959D01*
X106709039Y-90048096D01*
X106487000Y-90170085D01*
X106233000Y-90170085D01*
X106010961Y-90048096D01*
X105622577Y-90208959D01*
X105207611Y-90584866D01*
X105104986Y-90801703D01*
X104834698Y-90397189D01*
X104369151Y-90086120D01*
X103820000Y-89976887D01*
X103270849Y-90086120D01*
X102805302Y-90397189D01*
X102550000Y-90779275D01*
X102294698Y-90397189D01*
X101829151Y-90086120D01*
X101280000Y-89976887D01*
X100730849Y-90086120D01*
X100265302Y-90397189D01*
X100010000Y-90779275D01*
X99754698Y-90397189D01*
X99289151Y-90086120D01*
X98740000Y-89976887D01*
X98190849Y-90086120D01*
X97725302Y-90397189D01*
X97470000Y-90779275D01*
X97214698Y-90397189D01*
X96749151Y-90086120D01*
X96200000Y-89976887D01*
X95650849Y-90086120D01*
X95185302Y-90397189D01*
X94930000Y-90779275D01*
X94674698Y-90397189D01*
X94209151Y-90086120D01*
X93660000Y-89976887D01*
X93483562Y-90011983D01*
X91745790Y-88274210D01*
X91717040Y-88255000D01*
X91458675Y-88082367D01*
X91400474Y-88070790D01*
X91120000Y-88014999D01*
X91119995Y-88015000D01*
X90536579Y-88015000D01*
X87245000Y-84723420D01*
X87245000Y-84350847D01*
X87254233Y-84397264D01*
X87565302Y-84862811D01*
X88030849Y-85173880D01*
X88580000Y-85283113D01*
X89129151Y-85173880D01*
X89594698Y-84862811D01*
X89850000Y-84480725D01*
X90105302Y-84862811D01*
X90570849Y-85173880D01*
X91120000Y-85283113D01*
X91669151Y-85173880D01*
X92134698Y-84862811D01*
X92390000Y-84480725D01*
X92645302Y-84862811D01*
X93110849Y-85173880D01*
X93660000Y-85283113D01*
X94209151Y-85173880D01*
X94674698Y-84862811D01*
X94930000Y-84480725D01*
X95185302Y-84862811D01*
X95650849Y-85173880D01*
X96200000Y-85283113D01*
X96749151Y-85173880D01*
X97214698Y-84862811D01*
X97470000Y-84480725D01*
X97725302Y-84862811D01*
X98190849Y-85173880D01*
X98740000Y-85283113D01*
X99289151Y-85173880D01*
X99754698Y-84862811D01*
X100010000Y-84480725D01*
X100265302Y-84862811D01*
X100730849Y-85173880D01*
X101280000Y-85283113D01*
X101829151Y-85173880D01*
X102294698Y-84862811D01*
X102550000Y-84480725D01*
X102805302Y-84862811D01*
X103270849Y-85173880D01*
X103820000Y-85283113D01*
X104369151Y-85173880D01*
X104834698Y-84862811D01*
X105090000Y-84480725D01*
X105345302Y-84862811D01*
X105810849Y-85173880D01*
X106360000Y-85283113D01*
X106536438Y-85248017D01*
X108589000Y-87300579D01*
X108589000Y-100531178D01*
X108539162Y-100651201D01*
X108538838Y-101023167D01*
X108680883Y-101366943D01*
X108943673Y-101630192D01*
X109287201Y-101772838D01*
X109659167Y-101773162D01*
X110002943Y-101631117D01*
X110165705Y-101468639D01*
X110192366Y-101602672D01*
X110306067Y-101772838D01*
X110384209Y-101889787D01*
X113115000Y-104620577D01*
X113115000Y-105193178D01*
X113065162Y-105313201D01*
X113064838Y-105685167D01*
X113206883Y-106028943D01*
X113469673Y-106292192D01*
X113813201Y-106434838D01*
X114185167Y-106435162D01*
X114528943Y-106293117D01*
X114792192Y-106030327D01*
X114909013Y-105748991D01*
X116464735Y-105748991D01*
X116697932Y-106313371D01*
X117129357Y-106745551D01*
X117693330Y-106979733D01*
X118303991Y-106980265D01*
X118868371Y-106747068D01*
X119300551Y-106315643D01*
X119502207Y-105830000D01*
X133376560Y-105830000D01*
X133376560Y-107530000D01*
X133420838Y-107765317D01*
X133559910Y-107981441D01*
X133772110Y-108126431D01*
X134024000Y-108177440D01*
X135724000Y-108177440D01*
X135959317Y-108133162D01*
X136175441Y-107994090D01*
X136320431Y-107781890D01*
X136371440Y-107530000D01*
X136371440Y-105830000D01*
X136327162Y-105594683D01*
X136188090Y-105378559D01*
X135975890Y-105233569D01*
X135759000Y-105189648D01*
X135759000Y-92397544D01*
X135797189Y-92454698D01*
X136262736Y-92765767D01*
X136811887Y-92875000D01*
X136868113Y-92875000D01*
X137417264Y-92765767D01*
X137882811Y-92454698D01*
X138193880Y-91989151D01*
X138303113Y-91440000D01*
X138193880Y-90890849D01*
X137882811Y-90425302D01*
X137500725Y-90170000D01*
X137882811Y-89914698D01*
X138193880Y-89449151D01*
X138303113Y-88900000D01*
X138193880Y-88350849D01*
X137882811Y-87885302D01*
X137500725Y-87630000D01*
X137882811Y-87374698D01*
X138193880Y-86909151D01*
X138303113Y-86360000D01*
X138193880Y-85810849D01*
X137882811Y-85345302D01*
X137500725Y-85090000D01*
X137882811Y-84834698D01*
X138193880Y-84369151D01*
X138303113Y-83820000D01*
X138193880Y-83270849D01*
X137882811Y-82805302D01*
X137500725Y-82550000D01*
X137882811Y-82294698D01*
X138193880Y-81829151D01*
X138303113Y-81280000D01*
X138193880Y-80730849D01*
X137882811Y-80265302D01*
X137500725Y-80010000D01*
X137882811Y-79754698D01*
X138193880Y-79289151D01*
X138303113Y-78740000D01*
X138193880Y-78190849D01*
X137882811Y-77725302D01*
X137500725Y-77470000D01*
X137882811Y-77214698D01*
X138193880Y-76749151D01*
X138303113Y-76200000D01*
X138193880Y-75650849D01*
X137882811Y-75185302D01*
X137500725Y-74930000D01*
X137882811Y-74674698D01*
X138193880Y-74209151D01*
X138303113Y-73660000D01*
X138193880Y-73110849D01*
X137882811Y-72645302D01*
X137500725Y-72390000D01*
X137882811Y-72134698D01*
X138193880Y-71669151D01*
X138303113Y-71120000D01*
X138193880Y-70570849D01*
X137882811Y-70105302D01*
X137500725Y-69850000D01*
X137882811Y-69594698D01*
X138193880Y-69129151D01*
X138303113Y-68580000D01*
X138193880Y-68030849D01*
X137882811Y-67565302D01*
X137417264Y-67254233D01*
X136868113Y-67145000D01*
X136811887Y-67145000D01*
X136262736Y-67254233D01*
X135797189Y-67565302D01*
X135486120Y-68030849D01*
X135376887Y-68580000D01*
X135486120Y-69129151D01*
X135797189Y-69594698D01*
X136179275Y-69850000D01*
X135797189Y-70105302D01*
X135486120Y-70570849D01*
X135376887Y-71120000D01*
X135411983Y-71296438D01*
X134248210Y-72460210D01*
X134056367Y-72747325D01*
X134056367Y-72747326D01*
X133988999Y-73086000D01*
X133989000Y-73086005D01*
X133989000Y-105189146D01*
X133788683Y-105226838D01*
X133572559Y-105365910D01*
X133427569Y-105578110D01*
X133376560Y-105830000D01*
X119502207Y-105830000D01*
X119534733Y-105751670D01*
X119535265Y-105141009D01*
X119302068Y-104576629D01*
X119124908Y-104399159D01*
X119259699Y-104343327D01*
X119438327Y-104164698D01*
X119535000Y-103931309D01*
X119535000Y-103190750D01*
X119376250Y-103032000D01*
X118127000Y-103032000D01*
X118127000Y-103052000D01*
X117873000Y-103052000D01*
X117873000Y-103032000D01*
X116623750Y-103032000D01*
X116465000Y-103190750D01*
X116465000Y-103931309D01*
X116561673Y-104164698D01*
X116740301Y-104343327D01*
X116874994Y-104399119D01*
X116699449Y-104574357D01*
X116465267Y-105138330D01*
X116464735Y-105748991D01*
X114909013Y-105748991D01*
X114934838Y-105686799D01*
X114935162Y-105314833D01*
X114885000Y-105193431D01*
X114885000Y-104254003D01*
X114885001Y-104253998D01*
X114817633Y-103915324D01*
X114817633Y-103915323D01*
X114625790Y-103628208D01*
X114625787Y-103628206D01*
X112876273Y-101878691D01*
X116465000Y-101878691D01*
X116465000Y-102619250D01*
X116623750Y-102778000D01*
X117873000Y-102778000D01*
X117873000Y-101528750D01*
X118127000Y-101528750D01*
X118127000Y-102778000D01*
X119376250Y-102778000D01*
X119535000Y-102619250D01*
X119535000Y-101878691D01*
X119438327Y-101645302D01*
X119259699Y-101466673D01*
X119026310Y-101370000D01*
X118285750Y-101370000D01*
X118127000Y-101528750D01*
X117873000Y-101528750D01*
X117714250Y-101370000D01*
X116973690Y-101370000D01*
X116740301Y-101466673D01*
X116561673Y-101645302D01*
X116465000Y-101878691D01*
X112876273Y-101878691D01*
X111894999Y-100897417D01*
X111894999Y-100499785D01*
X112208201Y-100629838D01*
X112580167Y-100630162D01*
X112923943Y-100488117D01*
X113187192Y-100225327D01*
X113237566Y-100104014D01*
X113540786Y-99800793D01*
X113540789Y-99800791D01*
X113732632Y-99513676D01*
X113763168Y-99360162D01*
X113800000Y-99175001D01*
X113799999Y-99174996D01*
X113799999Y-98748991D01*
X116464735Y-98748991D01*
X116697932Y-99313371D01*
X117129357Y-99745551D01*
X117693330Y-99979733D01*
X118303991Y-99980265D01*
X118868371Y-99747068D01*
X119300551Y-99315643D01*
X119534733Y-98751670D01*
X119535265Y-98141009D01*
X119302068Y-97576629D01*
X119124908Y-97399159D01*
X119259699Y-97343327D01*
X119438327Y-97164698D01*
X119535000Y-96931309D01*
X119535000Y-96190750D01*
X119376250Y-96032000D01*
X118127000Y-96032000D01*
X118127000Y-96052000D01*
X117873000Y-96052000D01*
X117873000Y-96032000D01*
X116623750Y-96032000D01*
X116465000Y-96190750D01*
X116465000Y-96931309D01*
X116561673Y-97164698D01*
X116740301Y-97343327D01*
X116874994Y-97399119D01*
X116699449Y-97574357D01*
X116465267Y-98138330D01*
X116464735Y-98748991D01*
X113799999Y-98748991D01*
X113799999Y-94878691D01*
X116465000Y-94878691D01*
X116465000Y-95619250D01*
X116623750Y-95778000D01*
X117873000Y-95778000D01*
X117873000Y-94528750D01*
X118127000Y-94528750D01*
X118127000Y-95778000D01*
X119376250Y-95778000D01*
X119535000Y-95619250D01*
X119535000Y-94878691D01*
X119438327Y-94645302D01*
X119259699Y-94466673D01*
X119026310Y-94370000D01*
X118285750Y-94370000D01*
X118127000Y-94528750D01*
X117873000Y-94528750D01*
X117714250Y-94370000D01*
X116973690Y-94370000D01*
X116740301Y-94466673D01*
X116561673Y-94645302D01*
X116465000Y-94878691D01*
X113799999Y-94878691D01*
X113799999Y-88496579D01*
X116465247Y-91161826D01*
X116464735Y-91748991D01*
X116697932Y-92313371D01*
X117129357Y-92745551D01*
X117693330Y-92979733D01*
X118303991Y-92980265D01*
X118868371Y-92747068D01*
X119300551Y-92315643D01*
X119519216Y-91789039D01*
X127828096Y-91789039D01*
X127988959Y-92177423D01*
X128364866Y-92592389D01*
X128870959Y-92831914D01*
X129093000Y-92710629D01*
X129093000Y-91567000D01*
X129347000Y-91567000D01*
X129347000Y-92710629D01*
X129569041Y-92831914D01*
X130075134Y-92592389D01*
X130451041Y-92177423D01*
X130611904Y-91789039D01*
X130489915Y-91567000D01*
X129347000Y-91567000D01*
X129093000Y-91567000D01*
X127950085Y-91567000D01*
X127828096Y-91789039D01*
X119519216Y-91789039D01*
X119534733Y-91751670D01*
X119535265Y-91141009D01*
X119302068Y-90576629D01*
X119124908Y-90399159D01*
X119259699Y-90343327D01*
X119438327Y-90164698D01*
X119535000Y-89931309D01*
X119535000Y-89190750D01*
X119376250Y-89032000D01*
X118127000Y-89032000D01*
X118127000Y-89052000D01*
X117873000Y-89052000D01*
X117873000Y-89032000D01*
X117853000Y-89032000D01*
X117853000Y-88778000D01*
X117873000Y-88778000D01*
X117873000Y-87528750D01*
X118127000Y-87528750D01*
X118127000Y-88778000D01*
X119376250Y-88778000D01*
X119535000Y-88619250D01*
X119535000Y-87878691D01*
X119438327Y-87645302D01*
X119259699Y-87466673D01*
X119026310Y-87370000D01*
X118285750Y-87370000D01*
X118127000Y-87528750D01*
X117873000Y-87528750D01*
X117714250Y-87370000D01*
X116973690Y-87370000D01*
X116740301Y-87466673D01*
X116561673Y-87645302D01*
X116465000Y-87878691D01*
X116465000Y-88619250D01*
X116623748Y-88777998D01*
X116584577Y-88777998D01*
X114885000Y-87078420D01*
X114885000Y-82581580D01*
X116465247Y-84161826D01*
X116464735Y-84748991D01*
X116697932Y-85313371D01*
X117129357Y-85745551D01*
X117693330Y-85979733D01*
X118303991Y-85980265D01*
X118868371Y-85747068D01*
X119300551Y-85315643D01*
X119534733Y-84751670D01*
X119535265Y-84141009D01*
X119302068Y-83576629D01*
X119124908Y-83399159D01*
X119259699Y-83343327D01*
X119438327Y-83164698D01*
X119535000Y-82931309D01*
X119535000Y-82190750D01*
X119376250Y-82032000D01*
X118127000Y-82032000D01*
X118127000Y-82052000D01*
X117873000Y-82052000D01*
X117873000Y-82032000D01*
X117853000Y-82032000D01*
X117853000Y-81778000D01*
X117873000Y-81778000D01*
X117873000Y-80528750D01*
X118127000Y-80528750D01*
X118127000Y-81778000D01*
X119376250Y-81778000D01*
X119535000Y-81619250D01*
X119535000Y-80878691D01*
X119438327Y-80645302D01*
X119259699Y-80466673D01*
X119026310Y-80370000D01*
X118285750Y-80370000D01*
X118127000Y-80528750D01*
X117873000Y-80528750D01*
X117714250Y-80370000D01*
X116973690Y-80370000D01*
X116740301Y-80466673D01*
X116561673Y-80645302D01*
X116465000Y-80878691D01*
X116465000Y-81619250D01*
X116623748Y-81777998D01*
X116584577Y-81777998D01*
X115635001Y-80828421D01*
X115635001Y-77748991D01*
X116464735Y-77748991D01*
X116697932Y-78313371D01*
X117129357Y-78745551D01*
X117693330Y-78979733D01*
X118303991Y-78980265D01*
X118868371Y-78747068D01*
X119300551Y-78315643D01*
X119534733Y-77751670D01*
X119535265Y-77141009D01*
X119302068Y-76576629D01*
X119124908Y-76399159D01*
X119259699Y-76343327D01*
X119438327Y-76164698D01*
X119535000Y-75931309D01*
X119535000Y-75190750D01*
X119376250Y-75032000D01*
X118127000Y-75032000D01*
X118127000Y-75052000D01*
X117873000Y-75052000D01*
X117873000Y-75032000D01*
X116623750Y-75032000D01*
X116465000Y-75190750D01*
X116465000Y-75931309D01*
X116561673Y-76164698D01*
X116740301Y-76343327D01*
X116874994Y-76399119D01*
X116699449Y-76574357D01*
X116465267Y-77138330D01*
X116464735Y-77748991D01*
X115635001Y-77748991D01*
X115635001Y-73878691D01*
X116465000Y-73878691D01*
X116465000Y-74619250D01*
X116623750Y-74778000D01*
X117873000Y-74778000D01*
X117873000Y-73528750D01*
X118127000Y-73528750D01*
X118127000Y-74778000D01*
X119376250Y-74778000D01*
X119535000Y-74619250D01*
X119535000Y-73878691D01*
X119438327Y-73645302D01*
X119259699Y-73466673D01*
X119026310Y-73370000D01*
X118285750Y-73370000D01*
X118127000Y-73528750D01*
X117873000Y-73528750D01*
X117714250Y-73370000D01*
X116973690Y-73370000D01*
X116740301Y-73466673D01*
X116561673Y-73645302D01*
X116465000Y-73878691D01*
X115635001Y-73878691D01*
X115635001Y-73250006D01*
X115635002Y-73250001D01*
X115567635Y-72911327D01*
X115458053Y-72747326D01*
X115375791Y-72624211D01*
X115375788Y-72624209D01*
X114842744Y-72091165D01*
X114793117Y-71971057D01*
X114530327Y-71707808D01*
X114186799Y-71565162D01*
X113814833Y-71564838D01*
X113799999Y-71570967D01*
X113799999Y-70748991D01*
X116464735Y-70748991D01*
X116697932Y-71313371D01*
X117129357Y-71745551D01*
X117693330Y-71979733D01*
X118303991Y-71980265D01*
X118868371Y-71747068D01*
X119300551Y-71315643D01*
X119534733Y-70751670D01*
X119535265Y-70141009D01*
X119302068Y-69576629D01*
X119124908Y-69399159D01*
X119259699Y-69343327D01*
X119438327Y-69164698D01*
X119535000Y-68931309D01*
X119535000Y-68190750D01*
X119376250Y-68032000D01*
X118127000Y-68032000D01*
X118127000Y-68052000D01*
X117873000Y-68052000D01*
X117873000Y-68032000D01*
X116623750Y-68032000D01*
X116465000Y-68190750D01*
X116465000Y-68931309D01*
X116561673Y-69164698D01*
X116740301Y-69343327D01*
X116874994Y-69399119D01*
X116699449Y-69574357D01*
X116465267Y-70138330D01*
X116464735Y-70748991D01*
X113799999Y-70748991D01*
X113799999Y-66878691D01*
X116465000Y-66878691D01*
X116465000Y-67619250D01*
X116623750Y-67778000D01*
X117873000Y-67778000D01*
X117873000Y-66528750D01*
X118127000Y-66528750D01*
X118127000Y-67778000D01*
X119376250Y-67778000D01*
X119535000Y-67619250D01*
X119535000Y-66878691D01*
X119438327Y-66645302D01*
X119259699Y-66466673D01*
X119026310Y-66370000D01*
X118285750Y-66370000D01*
X118127000Y-66528750D01*
X117873000Y-66528750D01*
X117714250Y-66370000D01*
X116973690Y-66370000D01*
X116740301Y-66466673D01*
X116561673Y-66645302D01*
X116465000Y-66878691D01*
X113799999Y-66878691D01*
X113799999Y-64616581D01*
X114086579Y-64330000D01*
X116714532Y-64330000D01*
X117129357Y-64745551D01*
X117693330Y-64979733D01*
X118303991Y-64980265D01*
X118868371Y-64747068D01*
X119300551Y-64315643D01*
X119534733Y-63751670D01*
X119535265Y-63141009D01*
X119302068Y-62576629D01*
X119124908Y-62399159D01*
X119259699Y-62343327D01*
X119438327Y-62164698D01*
X119535000Y-61931309D01*
X119535000Y-61190750D01*
X119376250Y-61032000D01*
X118127000Y-61032000D01*
X118127000Y-61052000D01*
X117873000Y-61052000D01*
X117873000Y-61032000D01*
X116623750Y-61032000D01*
X116465000Y-61190750D01*
X116465000Y-61931309D01*
X116561673Y-62164698D01*
X116740301Y-62343327D01*
X116874994Y-62399119D01*
X116713831Y-62560000D01*
X113720000Y-62560000D01*
X113381325Y-62627367D01*
X113094210Y-62819210D01*
X113094208Y-62819213D01*
X112645000Y-63268420D01*
X112645000Y-63051580D01*
X115817888Y-59878691D01*
X116465000Y-59878691D01*
X116465000Y-60619250D01*
X116623750Y-60778000D01*
X117873000Y-60778000D01*
X117873000Y-59528750D01*
X118127000Y-59528750D01*
X118127000Y-60778000D01*
X119376250Y-60778000D01*
X119535000Y-60619250D01*
X119535000Y-59878691D01*
X119438327Y-59645302D01*
X119259699Y-59466673D01*
X119026310Y-59370000D01*
X118285750Y-59370000D01*
X118127000Y-59528750D01*
X117873000Y-59528750D01*
X117714250Y-59370000D01*
X116973690Y-59370000D01*
X116740301Y-59466673D01*
X116561673Y-59645302D01*
X116465000Y-59878691D01*
X115817888Y-59878691D01*
X117716826Y-57979753D01*
X118303991Y-57980265D01*
X118868371Y-57747068D01*
X119300551Y-57315643D01*
X119534733Y-56751670D01*
X119535265Y-56141009D01*
X119302068Y-55576629D01*
X119124908Y-55399159D01*
X119259699Y-55343327D01*
X119438327Y-55164698D01*
X119535000Y-54931309D01*
X119535000Y-54190750D01*
X119376250Y-54032000D01*
X118127000Y-54032000D01*
X118127000Y-54052000D01*
X117873000Y-54052000D01*
X117873000Y-54032000D01*
X116623750Y-54032000D01*
X116465000Y-54190750D01*
X116465000Y-54931309D01*
X116561673Y-55164698D01*
X116740301Y-55343327D01*
X116874994Y-55399119D01*
X116699449Y-55574357D01*
X116465267Y-56138330D01*
X116464753Y-56728668D01*
X111894999Y-61298421D01*
X111894999Y-54990006D01*
X111895000Y-54990001D01*
X111827632Y-54651327D01*
X111827632Y-54651326D01*
X111635789Y-54364211D01*
X111635786Y-54364209D01*
X111328663Y-54057086D01*
X111293117Y-53971057D01*
X111030327Y-53707808D01*
X110686799Y-53565162D01*
X110314833Y-53564838D01*
X109971057Y-53706883D01*
X109707808Y-53969673D01*
X109565162Y-54313201D01*
X109564838Y-54685167D01*
X109706883Y-55028943D01*
X109969673Y-55292192D01*
X110124999Y-55356689D01*
X110124999Y-86345938D01*
X110099790Y-86308210D01*
X110099787Y-86308208D01*
X107769233Y-83977653D01*
X107795000Y-83848113D01*
X107795000Y-83791887D01*
X107685767Y-83242736D01*
X107374698Y-82777189D01*
X106909151Y-82466120D01*
X106360000Y-82356887D01*
X105810849Y-82466120D01*
X105345302Y-82777189D01*
X105090000Y-83159275D01*
X104834698Y-82777189D01*
X104705000Y-82690527D01*
X104705000Y-78227123D01*
X104932192Y-78000327D01*
X105074838Y-77656799D01*
X105075162Y-77284833D01*
X104933117Y-76941057D01*
X104670327Y-76677808D01*
X104354516Y-76546671D01*
X104622566Y-76367566D01*
X104868603Y-75999346D01*
X104955000Y-75565000D01*
X104955000Y-68685167D01*
X105064838Y-68685167D01*
X105115000Y-68806569D01*
X105115000Y-80193178D01*
X105065162Y-80313201D01*
X105064838Y-80685167D01*
X105206883Y-81028943D01*
X105469673Y-81292192D01*
X105813201Y-81434838D01*
X106185167Y-81435162D01*
X106528943Y-81293117D01*
X106792192Y-81030327D01*
X106934838Y-80686799D01*
X106935162Y-80314833D01*
X106885000Y-80193431D01*
X106885000Y-68806822D01*
X106934838Y-68686799D01*
X106935162Y-68314833D01*
X106793117Y-67971057D01*
X106530327Y-67707808D01*
X106186799Y-67565162D01*
X105814833Y-67564838D01*
X105471057Y-67706883D01*
X105207808Y-67969673D01*
X105065162Y-68313201D01*
X105064838Y-68685167D01*
X104955000Y-68685167D01*
X104955000Y-66902767D01*
X105104986Y-66678297D01*
X105207611Y-66895134D01*
X105622577Y-67271041D01*
X106010961Y-67431904D01*
X106233000Y-67309915D01*
X106233000Y-66167000D01*
X106487000Y-66167000D01*
X106487000Y-67309915D01*
X106709039Y-67431904D01*
X107097423Y-67271041D01*
X107512389Y-66895134D01*
X107751914Y-66389041D01*
X107630629Y-66167000D01*
X106487000Y-66167000D01*
X106233000Y-66167000D01*
X106213000Y-66167000D01*
X106213000Y-65913000D01*
X106233000Y-65913000D01*
X106233000Y-64770085D01*
X106487000Y-64770085D01*
X106487000Y-65913000D01*
X107630629Y-65913000D01*
X107751914Y-65690959D01*
X107512389Y-65184866D01*
X107097423Y-64808959D01*
X106709039Y-64648096D01*
X106487000Y-64770085D01*
X106233000Y-64770085D01*
X106010961Y-64648096D01*
X105622577Y-64808959D01*
X105207611Y-65184866D01*
X105104986Y-65401703D01*
X104834698Y-64997189D01*
X104369151Y-64686120D01*
X103820000Y-64576887D01*
X103270849Y-64686120D01*
X102805302Y-64997189D01*
X102550000Y-65379275D01*
X102294698Y-64997189D01*
X101829151Y-64686120D01*
X101280000Y-64576887D01*
X100730849Y-64686120D01*
X100265302Y-64997189D01*
X100010000Y-65379275D01*
X99754698Y-64997189D01*
X99289151Y-64686120D01*
X98740000Y-64576887D01*
X98190849Y-64686120D01*
X97725302Y-64997189D01*
X97470000Y-65379275D01*
X97214698Y-64997189D01*
X96749151Y-64686120D01*
X96200000Y-64576887D01*
X95650849Y-64686120D01*
X95185302Y-64997189D01*
X94930000Y-65379275D01*
X94674698Y-64997189D01*
X94209151Y-64686120D01*
X93660000Y-64576887D01*
X93110849Y-64686120D01*
X92645302Y-64997189D01*
X92390000Y-65379275D01*
X92134698Y-64997189D01*
X91669151Y-64686120D01*
X91120000Y-64576887D01*
X90570849Y-64686120D01*
X90105302Y-64997189D01*
X90008899Y-65141465D01*
X89983162Y-65004683D01*
X89844090Y-64788559D01*
X89680628Y-64676870D01*
X89692192Y-64665327D01*
X89742566Y-64544014D01*
X91745787Y-62540792D01*
X91745790Y-62540790D01*
X91937633Y-62253675D01*
X91942342Y-62230000D01*
X92005001Y-61915000D01*
X92005000Y-61914995D01*
X92005000Y-59549473D01*
X92134698Y-59462811D01*
X92390000Y-59080725D01*
X92645302Y-59462811D01*
X93110849Y-59773880D01*
X93660000Y-59883113D01*
X94209151Y-59773880D01*
X94674698Y-59462811D01*
X94930000Y-59080725D01*
X95185302Y-59462811D01*
X95650849Y-59773880D01*
X96200000Y-59883113D01*
X96749151Y-59773880D01*
X97214698Y-59462811D01*
X97470000Y-59080725D01*
X97725302Y-59462811D01*
X98190849Y-59773880D01*
X98740000Y-59883113D01*
X99289151Y-59773880D01*
X99754698Y-59462811D01*
X100010000Y-59080725D01*
X100265302Y-59462811D01*
X100730849Y-59773880D01*
X101280000Y-59883113D01*
X101829151Y-59773880D01*
X102294698Y-59462811D01*
X102550000Y-59080725D01*
X102805302Y-59462811D01*
X103270849Y-59773880D01*
X103820000Y-59883113D01*
X104369151Y-59773880D01*
X104834698Y-59462811D01*
X105090000Y-59080725D01*
X105345302Y-59462811D01*
X105810849Y-59773880D01*
X106360000Y-59883113D01*
X106536438Y-59848017D01*
X107827000Y-61138579D01*
X107827000Y-81481178D01*
X107777162Y-81601201D01*
X107776838Y-81973167D01*
X107918883Y-82316943D01*
X108181673Y-82580192D01*
X108525201Y-82722838D01*
X108897167Y-82723162D01*
X109240943Y-82581117D01*
X109504192Y-82318327D01*
X109646838Y-81974799D01*
X109647162Y-81602833D01*
X109597000Y-81481431D01*
X109597000Y-60772000D01*
X109529633Y-60433325D01*
X109337790Y-60146210D01*
X109337787Y-60146208D01*
X107769233Y-58577653D01*
X107795000Y-58448113D01*
X107795000Y-58391887D01*
X107685767Y-57842736D01*
X107374698Y-57377189D01*
X106909151Y-57066120D01*
X106360000Y-56956887D01*
X105810849Y-57066120D01*
X105345302Y-57377189D01*
X105090000Y-57759275D01*
X104834698Y-57377189D01*
X104369151Y-57066120D01*
X103820000Y-56956887D01*
X103270849Y-57066120D01*
X102805302Y-57377189D01*
X102550000Y-57759275D01*
X102294698Y-57377189D01*
X101829151Y-57066120D01*
X101280000Y-56956887D01*
X100730849Y-57066120D01*
X100265302Y-57377189D01*
X100010000Y-57759275D01*
X99754698Y-57377189D01*
X99289151Y-57066120D01*
X98740000Y-56956887D01*
X98190849Y-57066120D01*
X97725302Y-57377189D01*
X97470000Y-57759275D01*
X97214698Y-57377189D01*
X97085000Y-57290527D01*
X97085000Y-55385000D01*
X105633420Y-55385000D01*
X107157255Y-56908834D01*
X107206883Y-57028943D01*
X107469673Y-57292192D01*
X107813201Y-57434838D01*
X108185167Y-57435162D01*
X108528943Y-57293117D01*
X108792192Y-57030327D01*
X108934838Y-56686799D01*
X108935162Y-56314833D01*
X108793117Y-55971057D01*
X108530327Y-55707808D01*
X108409013Y-55657434D01*
X106625790Y-53874210D01*
X106541378Y-53817808D01*
X106338675Y-53682367D01*
X106282484Y-53671190D01*
X106000000Y-53614999D01*
X105999995Y-53615000D01*
X96500005Y-53615000D01*
X96500000Y-53614999D01*
X96217516Y-53671190D01*
X96161325Y-53682367D01*
X95874210Y-53874210D01*
X95874208Y-53874213D01*
X95574210Y-54174210D01*
X95382367Y-54461325D01*
X95382367Y-54461326D01*
X95314999Y-54800000D01*
X95315000Y-54800005D01*
X95315000Y-57290527D01*
X95185302Y-57377189D01*
X94930000Y-57759275D01*
X94674698Y-57377189D01*
X94209151Y-57066120D01*
X93660000Y-56956887D01*
X93110849Y-57066120D01*
X92645302Y-57377189D01*
X92390000Y-57759275D01*
X92134698Y-57377189D01*
X91669151Y-57066120D01*
X91120000Y-56956887D01*
X90570849Y-57066120D01*
X90535000Y-57090074D01*
X90535000Y-52878691D01*
X116465000Y-52878691D01*
X116465000Y-53619250D01*
X116623750Y-53778000D01*
X117873000Y-53778000D01*
X117873000Y-52528750D01*
X118127000Y-52528750D01*
X118127000Y-53778000D01*
X119376250Y-53778000D01*
X119535000Y-53619250D01*
X119535000Y-52878691D01*
X119438327Y-52645302D01*
X119259699Y-52466673D01*
X119026310Y-52370000D01*
X118285750Y-52370000D01*
X118127000Y-52528750D01*
X117873000Y-52528750D01*
X117714250Y-52370000D01*
X116973690Y-52370000D01*
X116740301Y-52466673D01*
X116561673Y-52645302D01*
X116465000Y-52878691D01*
X90535000Y-52878691D01*
X90535000Y-51435000D01*
X90410543Y-50809313D01*
X90344184Y-50710000D01*
X126825815Y-50710000D01*
X126759457Y-50809312D01*
X126634999Y-51435000D01*
X126759457Y-52060688D01*
X127113880Y-52591120D01*
X127585000Y-53062240D01*
X127585000Y-68580000D01*
X127709457Y-69205687D01*
X127772560Y-69300128D01*
X127772560Y-69380000D01*
X127816838Y-69615317D01*
X127955910Y-69831441D01*
X128168110Y-69976431D01*
X128323089Y-70007815D01*
X128177189Y-70105302D01*
X127866120Y-70570849D01*
X127756887Y-71120000D01*
X127866120Y-71669151D01*
X128177189Y-72134698D01*
X128559275Y-72390000D01*
X128177189Y-72645302D01*
X127866120Y-73110849D01*
X127756887Y-73660000D01*
X127866120Y-74209151D01*
X128177189Y-74674698D01*
X128559275Y-74930000D01*
X128177189Y-75185302D01*
X127866120Y-75650849D01*
X127756887Y-76200000D01*
X127866120Y-76749151D01*
X128177189Y-77214698D01*
X128559275Y-77470000D01*
X128177189Y-77725302D01*
X127866120Y-78190849D01*
X127756887Y-78740000D01*
X127866120Y-79289151D01*
X128177189Y-79754698D01*
X128559275Y-80010000D01*
X128177189Y-80265302D01*
X127866120Y-80730849D01*
X127756887Y-81280000D01*
X127866120Y-81829151D01*
X128177189Y-82294698D01*
X128559275Y-82550000D01*
X128177189Y-82805302D01*
X127866120Y-83270849D01*
X127756887Y-83820000D01*
X127866120Y-84369151D01*
X128177189Y-84834698D01*
X128559275Y-85090000D01*
X128177189Y-85345302D01*
X127866120Y-85810849D01*
X127756887Y-86360000D01*
X127866120Y-86909151D01*
X128177189Y-87374698D01*
X128559275Y-87630000D01*
X128177189Y-87885302D01*
X127866120Y-88350849D01*
X127756887Y-88900000D01*
X127866120Y-89449151D01*
X128177189Y-89914698D01*
X128581703Y-90184986D01*
X128364866Y-90287611D01*
X127988959Y-90702577D01*
X127828096Y-91090961D01*
X127950085Y-91313000D01*
X129093000Y-91313000D01*
X129093000Y-91293000D01*
X129347000Y-91293000D01*
X129347000Y-91313000D01*
X130489915Y-91313000D01*
X130611904Y-91090961D01*
X130451041Y-90702577D01*
X130075134Y-90287611D01*
X129858297Y-90184986D01*
X130262811Y-89914698D01*
X130573880Y-89449151D01*
X130683113Y-88900000D01*
X130573880Y-88350849D01*
X130262811Y-87885302D01*
X129880725Y-87630000D01*
X130262811Y-87374698D01*
X130573880Y-86909151D01*
X130683113Y-86360000D01*
X130573880Y-85810849D01*
X130262811Y-85345302D01*
X129880725Y-85090000D01*
X130262811Y-84834698D01*
X130573880Y-84369151D01*
X130683113Y-83820000D01*
X130573880Y-83270849D01*
X130262811Y-82805302D01*
X129880725Y-82550000D01*
X130262811Y-82294698D01*
X130573880Y-81829151D01*
X130683113Y-81280000D01*
X130573880Y-80730849D01*
X130262811Y-80265302D01*
X129880725Y-80010000D01*
X130262811Y-79754698D01*
X130573880Y-79289151D01*
X130683113Y-78740000D01*
X130573880Y-78190849D01*
X130262811Y-77725302D01*
X129880725Y-77470000D01*
X130262811Y-77214698D01*
X130573880Y-76749151D01*
X130683113Y-76200000D01*
X130573880Y-75650849D01*
X130262811Y-75185302D01*
X129880725Y-74930000D01*
X130262811Y-74674698D01*
X130573880Y-74209151D01*
X130683113Y-73660000D01*
X130573880Y-73110849D01*
X130262811Y-72645302D01*
X129880725Y-72390000D01*
X130262811Y-72134698D01*
X130573880Y-71669151D01*
X130683113Y-71120000D01*
X130573880Y-70570849D01*
X130262811Y-70105302D01*
X130118535Y-70008899D01*
X130255317Y-69983162D01*
X130471441Y-69844090D01*
X130616431Y-69631890D01*
X130667440Y-69380000D01*
X130667440Y-69300128D01*
X130730543Y-69205687D01*
X130855000Y-68580000D01*
X130855000Y-52385005D01*
X130855001Y-52385000D01*
X130730543Y-51759312D01*
X130376120Y-51228880D01*
X129857240Y-50710000D01*
X142873000Y-50710000D01*
X142873000Y-56150000D01*
X138745000Y-56150000D01*
X138119313Y-56274457D01*
X138099703Y-56287560D01*
X137895000Y-56287560D01*
X137659683Y-56331838D01*
X137443559Y-56470910D01*
X137298569Y-56683110D01*
X137247560Y-56935000D01*
X137247560Y-57139703D01*
X137234457Y-57159313D01*
X137110000Y-57785000D01*
X137234457Y-58410687D01*
X137247560Y-58430297D01*
X137247560Y-58635000D01*
X137291838Y-58870317D01*
X137430910Y-59086441D01*
X137643110Y-59231431D01*
X137895000Y-59282440D01*
X138099703Y-59282440D01*
X138119313Y-59295543D01*
X138745000Y-59420000D01*
X142873000Y-59420000D01*
X142873000Y-109290000D01*
X50710000Y-109290000D01*
X50710000Y-88255000D01*
X53485907Y-88255000D01*
X53598946Y-88823285D01*
X53920853Y-89305054D01*
X54250026Y-89525000D01*
X53920853Y-89744946D01*
X53598946Y-90226715D01*
X53485907Y-90795000D01*
X53598946Y-91363285D01*
X53920853Y-91845054D01*
X54250026Y-92065000D01*
X53920853Y-92284946D01*
X53598946Y-92766715D01*
X53485907Y-93335000D01*
X53598946Y-93903285D01*
X53920853Y-94385054D01*
X54250026Y-94605000D01*
X53920853Y-94824946D01*
X53598946Y-95306715D01*
X53485907Y-95875000D01*
X53598946Y-96443285D01*
X53920853Y-96925054D01*
X54250026Y-97145000D01*
X53920853Y-97364946D01*
X53598946Y-97846715D01*
X53485907Y-98415000D01*
X53598946Y-98983285D01*
X53920853Y-99465054D01*
X54250026Y-99685000D01*
X53920853Y-99904946D01*
X53598946Y-100386715D01*
X53485907Y-100955000D01*
X53598946Y-101523285D01*
X53920853Y-102005054D01*
X54250026Y-102225000D01*
X53920853Y-102444946D01*
X53598946Y-102926715D01*
X53485907Y-103495000D01*
X53598946Y-104063285D01*
X53920853Y-104545054D01*
X54402622Y-104866961D01*
X54970907Y-104980000D01*
X55029093Y-104980000D01*
X55597378Y-104866961D01*
X56079147Y-104545054D01*
X56401054Y-104063285D01*
X56514093Y-103495000D01*
X56470539Y-103276041D01*
X60436579Y-99310000D01*
X63018554Y-99310000D01*
X63046838Y-99460317D01*
X63185910Y-99676441D01*
X63398110Y-99821431D01*
X63650000Y-99872440D01*
X65250000Y-99872440D01*
X65485317Y-99828162D01*
X65701441Y-99689090D01*
X65846431Y-99476890D01*
X65877815Y-99321911D01*
X65975302Y-99467811D01*
X66440849Y-99778880D01*
X66812717Y-99852849D01*
X69665000Y-102705132D01*
X69665000Y-105258808D01*
X69498559Y-105365910D01*
X69353569Y-105578110D01*
X69302560Y-105830000D01*
X69302560Y-107530000D01*
X69346838Y-107765317D01*
X69485910Y-107981441D01*
X69698110Y-108126431D01*
X69950000Y-108177440D01*
X71650000Y-108177440D01*
X71885317Y-108133162D01*
X72101441Y-107994090D01*
X72246431Y-107781890D01*
X72297440Y-107530000D01*
X72297440Y-105830000D01*
X88418560Y-105830000D01*
X88418560Y-107530000D01*
X88462838Y-107765317D01*
X88601910Y-107981441D01*
X88814110Y-108126431D01*
X89066000Y-108177440D01*
X90766000Y-108177440D01*
X91001317Y-108133162D01*
X91217441Y-107994090D01*
X91362431Y-107781890D01*
X91413440Y-107530000D01*
X91413440Y-105830000D01*
X91369162Y-105594683D01*
X91230090Y-105378559D01*
X91017890Y-105233569D01*
X90766000Y-105182560D01*
X89066000Y-105182560D01*
X88830683Y-105226838D01*
X88614559Y-105365910D01*
X88469569Y-105578110D01*
X88418560Y-105830000D01*
X72297440Y-105830000D01*
X72253162Y-105594683D01*
X72114090Y-105378559D01*
X71935000Y-105256192D01*
X71935000Y-102705132D01*
X74787283Y-99852849D01*
X75159151Y-99778880D01*
X75624698Y-99467811D01*
X75880000Y-99085725D01*
X76135302Y-99467811D01*
X76600849Y-99778880D01*
X77150000Y-99888113D01*
X77699151Y-99778880D01*
X78164698Y-99467811D01*
X78434986Y-99063297D01*
X78537611Y-99280134D01*
X78952577Y-99656041D01*
X79340961Y-99816904D01*
X79563000Y-99694915D01*
X79563000Y-98552000D01*
X79817000Y-98552000D01*
X79817000Y-99694915D01*
X80039039Y-99816904D01*
X80427423Y-99656041D01*
X80842389Y-99280134D01*
X81081914Y-98774041D01*
X80960629Y-98552000D01*
X79817000Y-98552000D01*
X79563000Y-98552000D01*
X79543000Y-98552000D01*
X79543000Y-98298000D01*
X79563000Y-98298000D01*
X79563000Y-97155085D01*
X79817000Y-97155085D01*
X79817000Y-98298000D01*
X80960629Y-98298000D01*
X81081914Y-98075959D01*
X80842389Y-97569866D01*
X80427423Y-97193959D01*
X80039039Y-97033096D01*
X79817000Y-97155085D01*
X79563000Y-97155085D01*
X79340961Y-97033096D01*
X78952577Y-97193959D01*
X78537611Y-97569866D01*
X78434986Y-97786703D01*
X78164698Y-97382189D01*
X78035000Y-97295527D01*
X78035000Y-96007123D01*
X78262192Y-95780327D01*
X78404838Y-95436799D01*
X78405162Y-95064833D01*
X78263117Y-94721057D01*
X78000327Y-94457808D01*
X77656799Y-94315162D01*
X77284833Y-94314838D01*
X76941057Y-94456883D01*
X76677808Y-94719673D01*
X76627434Y-94840986D01*
X76524210Y-94944210D01*
X76332367Y-95231325D01*
X76332367Y-95231326D01*
X76264999Y-95570000D01*
X76265000Y-95570005D01*
X76265000Y-97295527D01*
X76135302Y-97382189D01*
X75880000Y-97764275D01*
X75745000Y-97562233D01*
X75745000Y-91667767D01*
X75880000Y-91465725D01*
X76135302Y-91847811D01*
X76600849Y-92158880D01*
X77150000Y-92268113D01*
X77699151Y-92158880D01*
X78164698Y-91847811D01*
X78420000Y-91465725D01*
X78675302Y-91847811D01*
X79140849Y-92158880D01*
X79690000Y-92268113D01*
X80239151Y-92158880D01*
X80704698Y-91847811D01*
X81015767Y-91382264D01*
X81125000Y-90833113D01*
X81125000Y-90776887D01*
X81015767Y-90227736D01*
X80704698Y-89762189D01*
X80239151Y-89451120D01*
X79690000Y-89341887D01*
X79140849Y-89451120D01*
X78675302Y-89762189D01*
X78420000Y-90144275D01*
X78164698Y-89762189D01*
X77699151Y-89451120D01*
X77150000Y-89341887D01*
X76600849Y-89451120D01*
X76135302Y-89762189D01*
X75880000Y-90144275D01*
X75745000Y-89942233D01*
X75745000Y-87222767D01*
X75880000Y-87020725D01*
X76135302Y-87402811D01*
X76600849Y-87713880D01*
X77150000Y-87823113D01*
X77699151Y-87713880D01*
X78164698Y-87402811D01*
X78434986Y-86998297D01*
X78537611Y-87215134D01*
X78952577Y-87591041D01*
X79340961Y-87751904D01*
X79563000Y-87629915D01*
X79563000Y-86487000D01*
X79543000Y-86487000D01*
X79543000Y-86233000D01*
X79563000Y-86233000D01*
X79563000Y-85090085D01*
X79340961Y-84968096D01*
X78952577Y-85128959D01*
X78537611Y-85504866D01*
X78434986Y-85721703D01*
X78164698Y-85317189D01*
X78035000Y-85230527D01*
X78035000Y-84506580D01*
X81688834Y-80852745D01*
X81808943Y-80803117D01*
X82072192Y-80540327D01*
X82214838Y-80196799D01*
X82215162Y-79824833D01*
X82073117Y-79481057D01*
X81810327Y-79217808D01*
X81466799Y-79075162D01*
X81094833Y-79074838D01*
X81061226Y-79088724D01*
X81125000Y-78768113D01*
X81125000Y-78711887D01*
X81015767Y-78162736D01*
X80704698Y-77697189D01*
X80575000Y-77610527D01*
X80575000Y-66162123D01*
X80802192Y-65935327D01*
X80944838Y-65591799D01*
X80945162Y-65219833D01*
X80803117Y-64876057D01*
X80540327Y-64612808D01*
X80196799Y-64470162D01*
X79824833Y-64469838D01*
X79481057Y-64611883D01*
X79217808Y-64874673D01*
X79167434Y-64995986D01*
X79064210Y-65099210D01*
X78872367Y-65386325D01*
X78872367Y-65386326D01*
X78804999Y-65725000D01*
X78805000Y-65725005D01*
X78805000Y-77610527D01*
X78675302Y-77697189D01*
X78420000Y-78079275D01*
X78164698Y-77697189D01*
X77699151Y-77386120D01*
X77150000Y-77276887D01*
X76600849Y-77386120D01*
X76135302Y-77697189D01*
X75880000Y-78079275D01*
X75745000Y-77877233D01*
X75745000Y-75565000D01*
X75658603Y-75130654D01*
X75412566Y-74762434D01*
X75044346Y-74516397D01*
X74610000Y-74430000D01*
X74175654Y-74516397D01*
X73807434Y-74762434D01*
X73561397Y-75130654D01*
X73475000Y-75565000D01*
X73475000Y-77877233D01*
X73340000Y-78079275D01*
X73084698Y-77697189D01*
X72955000Y-77610527D01*
X72955000Y-61717123D01*
X73182192Y-61490327D01*
X73324838Y-61146799D01*
X73325162Y-60774833D01*
X73183117Y-60431057D01*
X72920327Y-60167808D01*
X72576799Y-60025162D01*
X72204833Y-60024838D01*
X71861057Y-60166883D01*
X71597808Y-60429673D01*
X71547434Y-60550986D01*
X71444210Y-60654210D01*
X71252367Y-60941325D01*
X71252367Y-60941326D01*
X71184999Y-61280000D01*
X71185000Y-61280005D01*
X71185000Y-77610527D01*
X71055302Y-77697189D01*
X70800000Y-78079275D01*
X70544698Y-77697189D01*
X70100000Y-77400051D01*
X70100000Y-70791822D01*
X70149838Y-70671799D01*
X70150162Y-70299833D01*
X70008117Y-69956057D01*
X69745327Y-69692808D01*
X69401799Y-69550162D01*
X69029833Y-69549838D01*
X68686057Y-69691883D01*
X68422808Y-69954673D01*
X68280162Y-70298201D01*
X68279838Y-70670167D01*
X68330000Y-70791569D01*
X68330000Y-77974513D01*
X68260000Y-78079275D01*
X68004698Y-77697189D01*
X67539151Y-77386120D01*
X66990000Y-77276887D01*
X66440849Y-77386120D01*
X65975302Y-77697189D01*
X65720000Y-78079275D01*
X65585000Y-77877233D01*
X65585000Y-64323471D01*
X65853201Y-64434838D01*
X66225167Y-64435162D01*
X66425000Y-64352593D01*
X66425000Y-65733178D01*
X66375162Y-65853201D01*
X66374838Y-66225167D01*
X66516883Y-66568943D01*
X66779673Y-66832192D01*
X67123201Y-66974838D01*
X67495167Y-66975162D01*
X67695000Y-66892593D01*
X67695000Y-67003178D01*
X67645162Y-67123201D01*
X67644838Y-67495167D01*
X67786883Y-67838943D01*
X68049673Y-68102192D01*
X68393201Y-68244838D01*
X68765167Y-68245162D01*
X69108943Y-68103117D01*
X69372192Y-67840327D01*
X69514838Y-67496799D01*
X69515162Y-67124833D01*
X69465000Y-67003431D01*
X69465000Y-62536822D01*
X69514838Y-62416799D01*
X69515162Y-62044833D01*
X69373117Y-61701057D01*
X69110327Y-61437808D01*
X68766799Y-61295162D01*
X68394833Y-61294838D01*
X68195000Y-61377407D01*
X68195000Y-54916822D01*
X68244838Y-54796799D01*
X68245162Y-54424833D01*
X68103117Y-54081057D01*
X67840327Y-53817808D01*
X67496799Y-53675162D01*
X67124833Y-53674838D01*
X66925000Y-53757407D01*
X66925000Y-53646822D01*
X66974838Y-53526799D01*
X66975162Y-53154833D01*
X66833117Y-52811057D01*
X66570327Y-52547808D01*
X66226799Y-52405162D01*
X65854833Y-52404838D01*
X65511057Y-52546883D01*
X65247808Y-52809673D01*
X65105162Y-53153201D01*
X65104838Y-53525167D01*
X65155000Y-53646569D01*
X65155000Y-57361582D01*
X64770000Y-57285001D01*
X64335654Y-57371397D01*
X63967434Y-57617434D01*
X63647434Y-57937434D01*
X63401397Y-58305654D01*
X63315000Y-58740000D01*
X63315000Y-77877233D01*
X63124233Y-78162736D01*
X63050264Y-78534604D01*
X59522434Y-82062434D01*
X59276397Y-82430654D01*
X59190000Y-82865000D01*
X59190000Y-90805000D01*
X59276397Y-91239346D01*
X59517379Y-91600001D01*
X56242886Y-91600001D01*
X56401054Y-91363285D01*
X56514093Y-90795000D01*
X56401054Y-90226715D01*
X56079147Y-89744946D01*
X55749974Y-89525000D01*
X56079147Y-89305054D01*
X56401054Y-88823285D01*
X56514093Y-88255000D01*
X56401054Y-87686715D01*
X56079147Y-87204946D01*
X56037548Y-87177150D01*
X56085317Y-87168162D01*
X56301441Y-87029090D01*
X56446431Y-86816890D01*
X56488327Y-86610000D01*
X57149995Y-86610000D01*
X57150000Y-86610001D01*
X57432484Y-86553810D01*
X57488675Y-86542633D01*
X57775790Y-86350790D01*
X57775791Y-86350789D01*
X58410787Y-85715792D01*
X58410790Y-85715790D01*
X58551724Y-85504866D01*
X58602634Y-85428674D01*
X58670001Y-85090000D01*
X58670000Y-85089995D01*
X58670000Y-70791822D01*
X58719838Y-70671799D01*
X58720162Y-70299833D01*
X58578117Y-69956057D01*
X58315327Y-69692808D01*
X57971799Y-69550162D01*
X57599833Y-69549838D01*
X57256057Y-69691883D01*
X56992808Y-69954673D01*
X56850162Y-70298201D01*
X56849838Y-70670167D01*
X56900000Y-70791569D01*
X56900000Y-84723421D01*
X56783420Y-84840000D01*
X56492736Y-84840000D01*
X56453162Y-84629683D01*
X56314090Y-84413559D01*
X56101890Y-84268569D01*
X55850000Y-84217560D01*
X54150000Y-84217560D01*
X53914683Y-84261838D01*
X53698559Y-84400910D01*
X53553569Y-84613110D01*
X53502560Y-84865000D01*
X53502560Y-86565000D01*
X53546838Y-86800317D01*
X53685910Y-87016441D01*
X53898110Y-87161431D01*
X53965541Y-87175086D01*
X53920853Y-87204946D01*
X53598946Y-87686715D01*
X53485907Y-88255000D01*
X50710000Y-88255000D01*
X50710000Y-66675000D01*
X53410907Y-66675000D01*
X53523946Y-67243285D01*
X53845853Y-67725054D01*
X54175026Y-67945000D01*
X53845853Y-68164946D01*
X53523946Y-68646715D01*
X53410907Y-69215000D01*
X53523946Y-69783285D01*
X53845853Y-70265054D01*
X54175026Y-70485000D01*
X53845853Y-70704946D01*
X53523946Y-71186715D01*
X53410907Y-71755000D01*
X53523946Y-72323285D01*
X53845853Y-72805054D01*
X54175026Y-73025000D01*
X53845853Y-73244946D01*
X53523946Y-73726715D01*
X53410907Y-74295000D01*
X53523946Y-74863285D01*
X53845853Y-75345054D01*
X54175026Y-75565000D01*
X53845853Y-75784946D01*
X53523946Y-76266715D01*
X53410907Y-76835000D01*
X53523946Y-77403285D01*
X53845853Y-77885054D01*
X54175026Y-78105000D01*
X53845853Y-78324946D01*
X53523946Y-78806715D01*
X53410907Y-79375000D01*
X53523946Y-79943285D01*
X53845853Y-80425054D01*
X54175026Y-80645000D01*
X53845853Y-80864946D01*
X53523946Y-81346715D01*
X53410907Y-81915000D01*
X53523946Y-82483285D01*
X53845853Y-82965054D01*
X54327622Y-83286961D01*
X54895907Y-83400000D01*
X54954093Y-83400000D01*
X55522378Y-83286961D01*
X56004147Y-82965054D01*
X56326054Y-82483285D01*
X56439093Y-81915000D01*
X56326054Y-81346715D01*
X56004147Y-80864946D01*
X55674974Y-80645000D01*
X56004147Y-80425054D01*
X56326054Y-79943285D01*
X56439093Y-79375000D01*
X56326054Y-78806715D01*
X56004147Y-78324946D01*
X55674974Y-78105000D01*
X56004147Y-77885054D01*
X56326054Y-77403285D01*
X56439093Y-76835000D01*
X56326054Y-76266715D01*
X56004147Y-75784946D01*
X55674974Y-75565000D01*
X56004147Y-75345054D01*
X56326054Y-74863285D01*
X56439093Y-74295000D01*
X56326054Y-73726715D01*
X56004147Y-73244946D01*
X55674974Y-73025000D01*
X56004147Y-72805054D01*
X56326054Y-72323285D01*
X56439093Y-71755000D01*
X56326054Y-71186715D01*
X56004147Y-70704946D01*
X55674974Y-70485000D01*
X56004147Y-70265054D01*
X56326054Y-69783285D01*
X56439093Y-69215000D01*
X56326054Y-68646715D01*
X56004147Y-68164946D01*
X55674974Y-67945000D01*
X56004147Y-67725054D01*
X56326054Y-67243285D01*
X56439093Y-66675000D01*
X56326054Y-66106715D01*
X56004147Y-65624946D01*
X55962548Y-65597150D01*
X56010317Y-65588162D01*
X56226441Y-65449090D01*
X56371431Y-65236890D01*
X56422440Y-64985000D01*
X56422440Y-63285000D01*
X56378162Y-63049683D01*
X56239090Y-62833559D01*
X56026890Y-62688569D01*
X55775000Y-62637560D01*
X54075000Y-62637560D01*
X53839683Y-62681838D01*
X53623559Y-62820910D01*
X53478569Y-63033110D01*
X53427560Y-63285000D01*
X53427560Y-64985000D01*
X53471838Y-65220317D01*
X53610910Y-65436441D01*
X53823110Y-65581431D01*
X53890541Y-65595086D01*
X53845853Y-65624946D01*
X53523946Y-66106715D01*
X53410907Y-66675000D01*
X50710000Y-66675000D01*
X50710000Y-60698025D01*
X50795302Y-60783327D01*
X51028691Y-60880000D01*
X53369250Y-60880000D01*
X53528000Y-60721250D01*
X53528000Y-55372000D01*
X53782000Y-55372000D01*
X53782000Y-60721250D01*
X53940750Y-60880000D01*
X56281309Y-60880000D01*
X56514698Y-60783327D01*
X56693327Y-60604699D01*
X56790000Y-60371310D01*
X56790000Y-58070750D01*
X59790000Y-58070750D01*
X59790000Y-58761310D01*
X59886673Y-58994699D01*
X60065302Y-59173327D01*
X60298691Y-59270000D01*
X60989250Y-59270000D01*
X61148000Y-59111250D01*
X61148000Y-57912000D01*
X61402000Y-57912000D01*
X61402000Y-59111250D01*
X61560750Y-59270000D01*
X62251309Y-59270000D01*
X62484698Y-59173327D01*
X62663327Y-58994699D01*
X62760000Y-58761310D01*
X62760000Y-58070750D01*
X62601250Y-57912000D01*
X61402000Y-57912000D01*
X61148000Y-57912000D01*
X59948750Y-57912000D01*
X59790000Y-58070750D01*
X56790000Y-58070750D01*
X56790000Y-56808690D01*
X59790000Y-56808690D01*
X59790000Y-57499250D01*
X59948750Y-57658000D01*
X61148000Y-57658000D01*
X61148000Y-56458750D01*
X61402000Y-56458750D01*
X61402000Y-57658000D01*
X62601250Y-57658000D01*
X62760000Y-57499250D01*
X62760000Y-56808690D01*
X62663327Y-56575301D01*
X62484698Y-56396673D01*
X62251309Y-56300000D01*
X61560750Y-56300000D01*
X61402000Y-56458750D01*
X61148000Y-56458750D01*
X60989250Y-56300000D01*
X60298691Y-56300000D01*
X60065302Y-56396673D01*
X59886673Y-56575301D01*
X59790000Y-56808690D01*
X56790000Y-56808690D01*
X56790000Y-55530750D01*
X56631250Y-55372000D01*
X53782000Y-55372000D01*
X53528000Y-55372000D01*
X53508000Y-55372000D01*
X53508000Y-55118000D01*
X53528000Y-55118000D01*
X53528000Y-55098000D01*
X53782000Y-55098000D01*
X53782000Y-55118000D01*
X56631250Y-55118000D01*
X56790000Y-54959250D01*
X56790000Y-50710000D01*
X87455816Y-50710000D01*
X87389457Y-50809313D01*
M02*
