G04 #@! TF.FileFunction,Copper,L1,Top,Signal*
%FSLAX46Y46*%
G04 Gerber Fmt 4.6, Leading zero omitted, Abs format (unit mm)*
G04 Created by KiCad (PCBNEW 4.0.6-e0-6349~53~ubuntu16.04.1) date Mon May 29 18:46:17 2017*
%MOMM*%
%LPD*%
G01*
G04 APERTURE LIST*
%ADD10C,0.100000*%
%ADD11R,1.800000X1.800000*%
%ADD12C,1.800000*%
%ADD13R,1.700000X1.700000*%
%ADD14O,1.700000X1.700000*%
%ADD15R,1.600000X1.600000*%
%ADD16O,1.600000X1.600000*%
%ADD17R,5.000000X10.000000*%
%ADD18C,0.600000*%
%ADD19C,2.000000*%
%ADD20C,0.500000*%
%ADD21C,1.000000*%
G04 APERTURE END LIST*
D10*
D11*
X118000000Y-53905000D03*
D12*
X118000000Y-56445000D03*
D11*
X118000000Y-60905000D03*
D12*
X118000000Y-63445000D03*
D11*
X118000000Y-67905000D03*
D12*
X118000000Y-70445000D03*
D11*
X118000000Y-74905000D03*
D12*
X118000000Y-77445000D03*
D11*
X118000000Y-81905000D03*
D12*
X118000000Y-84445000D03*
D11*
X118000000Y-88905000D03*
D12*
X118000000Y-91445000D03*
D11*
X118000000Y-95905000D03*
D12*
X118000000Y-98445000D03*
D11*
X118000000Y-102905000D03*
D12*
X118000000Y-105445000D03*
D13*
X54925000Y-64135000D03*
D14*
X54925000Y-66675000D03*
X54925000Y-69215000D03*
X54925000Y-71755000D03*
X54925000Y-74295000D03*
X54925000Y-76835000D03*
X54925000Y-79375000D03*
X54925000Y-81915000D03*
D13*
X55000000Y-85715000D03*
D14*
X55000000Y-88255000D03*
X55000000Y-90795000D03*
X55000000Y-93335000D03*
X55000000Y-95875000D03*
X55000000Y-98415000D03*
X55000000Y-100955000D03*
X55000000Y-103495000D03*
D13*
X70800000Y-106680000D03*
X100330000Y-106680000D03*
X146050000Y-73660000D03*
D14*
X146050000Y-76200000D03*
X146050000Y-78740000D03*
X146050000Y-81280000D03*
X146050000Y-83820000D03*
X146050000Y-86360000D03*
X146050000Y-88900000D03*
X146050000Y-91440000D03*
D13*
X134874000Y-106680000D03*
D15*
X88580000Y-66040000D03*
D16*
X106360000Y-58420000D03*
X91120000Y-66040000D03*
X103820000Y-58420000D03*
X93660000Y-66040000D03*
X101280000Y-58420000D03*
X96200000Y-66040000D03*
X98740000Y-58420000D03*
X98740000Y-66040000D03*
X96200000Y-58420000D03*
X101280000Y-66040000D03*
X93660000Y-58420000D03*
X103820000Y-66040000D03*
X91120000Y-58420000D03*
X106360000Y-66040000D03*
X88580000Y-58420000D03*
D15*
X88580000Y-91440000D03*
D16*
X106360000Y-83820000D03*
X91120000Y-91440000D03*
X103820000Y-83820000D03*
X93660000Y-91440000D03*
X101280000Y-83820000D03*
X96200000Y-91440000D03*
X98740000Y-83820000D03*
X98740000Y-91440000D03*
X96200000Y-83820000D03*
X101280000Y-91440000D03*
X93660000Y-83820000D03*
X103820000Y-91440000D03*
X91120000Y-83820000D03*
X106360000Y-91440000D03*
X88580000Y-83820000D03*
D15*
X64450000Y-98425000D03*
D16*
X79690000Y-90805000D03*
X66990000Y-98425000D03*
X77150000Y-90805000D03*
X69530000Y-98425000D03*
X74610000Y-90805000D03*
X72070000Y-98425000D03*
X72070000Y-90805000D03*
X74610000Y-98425000D03*
X69530000Y-90805000D03*
X77150000Y-98425000D03*
X66990000Y-90805000D03*
X79690000Y-98425000D03*
X64450000Y-90805000D03*
D15*
X64450000Y-86360000D03*
D16*
X79690000Y-78740000D03*
X66990000Y-86360000D03*
X77150000Y-78740000D03*
X69530000Y-86360000D03*
X74610000Y-78740000D03*
X72070000Y-86360000D03*
X72070000Y-78740000D03*
X74610000Y-86360000D03*
X69530000Y-78740000D03*
X77150000Y-86360000D03*
X66990000Y-78740000D03*
X79690000Y-86360000D03*
X64450000Y-78740000D03*
D15*
X129220000Y-68580000D03*
D16*
X136840000Y-91440000D03*
X129220000Y-71120000D03*
X136840000Y-88900000D03*
X129220000Y-73660000D03*
X136840000Y-86360000D03*
X129220000Y-76200000D03*
X136840000Y-83820000D03*
X129220000Y-78740000D03*
X136840000Y-81280000D03*
X129220000Y-81280000D03*
X136840000Y-78740000D03*
X129220000Y-83820000D03*
X136840000Y-76200000D03*
X129220000Y-86360000D03*
X136840000Y-73660000D03*
X129220000Y-88900000D03*
X136840000Y-71120000D03*
X129220000Y-91440000D03*
X136840000Y-68580000D03*
D13*
X138745000Y-57785000D03*
X61275000Y-57785000D03*
D17*
X146365000Y-55245000D03*
X53655000Y-55245000D03*
D18*
X95885000Y-98425000D03*
X111760000Y-98425000D03*
X87630000Y-99695000D03*
X112395000Y-99695000D03*
X101500000Y-70500000D03*
X104140000Y-77470000D03*
X114000000Y-72500000D03*
X96000000Y-73000000D03*
X100000000Y-79000000D03*
X93000000Y-70500000D03*
X114000000Y-79000000D03*
X108000000Y-56500000D03*
X106000000Y-68500000D03*
X106000000Y-80500000D03*
X110500000Y-54500000D03*
X114000000Y-105500000D03*
X66040000Y-53340000D03*
X66040000Y-63500000D03*
X67310000Y-54610000D03*
X67310000Y-66040000D03*
X68580000Y-62230000D03*
X68580000Y-67310000D03*
X97790000Y-71120000D03*
X92710000Y-78740000D03*
X91440000Y-73660000D03*
X86360000Y-82550000D03*
X86360000Y-93980000D03*
X85090000Y-83820000D03*
X69215000Y-70485000D03*
X57785000Y-70485000D03*
X103820000Y-75565000D03*
X74610000Y-75565000D03*
X109474000Y-100838000D03*
X108712000Y-81788000D03*
X90170000Y-80010000D03*
X81280000Y-80010000D03*
X72390000Y-60960000D03*
X82000000Y-86500000D03*
X83500000Y-69000000D03*
X80010000Y-65405000D03*
X88900000Y-64135000D03*
X88900000Y-51435000D03*
X128270000Y-51435000D03*
X64770000Y-58420000D03*
X60325000Y-90805000D03*
X77470000Y-95250000D03*
X90170000Y-95250000D03*
X84455000Y-78740000D03*
X83820000Y-88265000D03*
X70784999Y-96184999D03*
X100965000Y-95885000D03*
X71000000Y-80500000D03*
X61500000Y-85500000D03*
X60325000Y-93980000D03*
D19*
X61275000Y-57785000D02*
X56195000Y-57785000D01*
X56195000Y-57785000D02*
X53655000Y-55245000D01*
D20*
X111760000Y-98425000D02*
X95885000Y-98425000D01*
D21*
X122555000Y-60960000D02*
X122555000Y-65586370D01*
X122555000Y-65586370D02*
X128088630Y-71120000D01*
X128088630Y-71120000D02*
X129220000Y-71120000D01*
X118939999Y-57344999D02*
X122555000Y-60960000D01*
X118000000Y-56445000D02*
X118899999Y-57344999D01*
X118899999Y-57344999D02*
X118939999Y-57344999D01*
D20*
X112395000Y-99695000D02*
X87630000Y-99695000D01*
D21*
X118000000Y-63445000D02*
X118000000Y-64717792D01*
X118000000Y-64717792D02*
X126942208Y-73660000D01*
X126942208Y-73660000D02*
X128088630Y-73660000D01*
X128088630Y-73660000D02*
X129220000Y-73660000D01*
D20*
X118000000Y-70445000D02*
X101555000Y-70445000D01*
X101555000Y-70445000D02*
X101500000Y-70500000D01*
D21*
X120874999Y-71344999D02*
X125730000Y-76200000D01*
X125730000Y-76200000D02*
X129220000Y-76200000D01*
X118000000Y-70445000D02*
X118899999Y-71344999D01*
X118899999Y-71344999D02*
X120874999Y-71344999D01*
D20*
X118000000Y-77445000D02*
X104165000Y-77445000D01*
X104165000Y-77445000D02*
X104140000Y-77470000D01*
D21*
X118000000Y-77445000D02*
X119295000Y-78740000D01*
X119295000Y-78740000D02*
X129220000Y-78740000D01*
D20*
X96000000Y-73000000D02*
X96500000Y-72500000D01*
X96500000Y-72500000D02*
X114000000Y-72500000D01*
D21*
X122565000Y-84445000D02*
X125730000Y-81280000D01*
X125730000Y-81280000D02*
X129220000Y-81280000D01*
X118000000Y-84445000D02*
X122565000Y-84445000D01*
D20*
X114000000Y-79000000D02*
X100000000Y-79000000D01*
X93000000Y-70500000D02*
X83889998Y-70500000D01*
X83889998Y-70500000D02*
X83389998Y-71000000D01*
X83389998Y-71000000D02*
X82000000Y-71000000D01*
X82000000Y-71000000D02*
X81500000Y-70500000D01*
X81500000Y-67500000D02*
X82960000Y-66040000D01*
X81500000Y-70500000D02*
X81500000Y-67500000D01*
X82960000Y-66040000D02*
X88580000Y-66040000D01*
D21*
X118000000Y-91445000D02*
X118899999Y-90545001D01*
X118899999Y-90545001D02*
X119420001Y-90545001D01*
X126145002Y-83820000D02*
X129220000Y-83820000D01*
X119420001Y-90545001D02*
X126145002Y-83820000D01*
D20*
X107500000Y-68000000D02*
X108000000Y-67500000D01*
X108000000Y-67500000D02*
X108000000Y-56500000D01*
X106500000Y-68000000D02*
X107500000Y-68000000D01*
X106000000Y-68500000D02*
X106500000Y-68000000D01*
X109500000Y-89945000D02*
X109500000Y-81465998D01*
X109500000Y-81465998D02*
X108534002Y-80500000D01*
X108534002Y-80500000D02*
X106000000Y-80500000D01*
X118000000Y-98445000D02*
X109500000Y-89945000D01*
D21*
X122555000Y-90170000D02*
X126365000Y-86360000D01*
X126365000Y-86360000D02*
X129220000Y-86360000D01*
X122555000Y-95885000D02*
X122555000Y-90170000D01*
X119995000Y-98445000D02*
X122555000Y-95885000D01*
X118000000Y-98445000D02*
X119995000Y-98445000D01*
D20*
X110500000Y-54500000D02*
X107740000Y-54500000D01*
X107740000Y-54500000D02*
X103820000Y-58420000D01*
X118000000Y-105445000D02*
X114055000Y-105445000D01*
X114055000Y-105445000D02*
X114000000Y-105500000D01*
D21*
X125095000Y-90805000D02*
X127000000Y-88900000D01*
X127000000Y-88900000D02*
X129220000Y-88900000D01*
X125095000Y-98870002D02*
X125095000Y-90805000D01*
X118000000Y-105445000D02*
X118899999Y-104545001D01*
X118899999Y-104545001D02*
X119420001Y-104545001D01*
X119420001Y-104545001D02*
X125095000Y-98870002D01*
D20*
X66040000Y-53340000D02*
X93660000Y-53340000D01*
X93660000Y-53340000D02*
X98740000Y-58420000D01*
X54925000Y-64135000D02*
X65405000Y-64135000D01*
X65405000Y-64135000D02*
X66040000Y-63500000D01*
X67310000Y-54610000D02*
X89850000Y-54610000D01*
X89850000Y-54610000D02*
X93660000Y-58420000D01*
X54925000Y-66675000D02*
X66675000Y-66675000D01*
X66675000Y-66675000D02*
X67310000Y-66040000D01*
X68580000Y-62230000D02*
X89850000Y-62230000D01*
X89850000Y-62230000D02*
X93660000Y-66040000D01*
X54925000Y-69215000D02*
X66675000Y-69215000D01*
X66675000Y-69215000D02*
X68580000Y-67310000D01*
X54925000Y-71755000D02*
X97155000Y-71755000D01*
X97155000Y-71755000D02*
X97790000Y-71120000D01*
X92710000Y-78740000D02*
X96520000Y-78740000D01*
X96520000Y-78740000D02*
X98740000Y-80960000D01*
X98740000Y-80960000D02*
X98740000Y-83820000D01*
X60960000Y-73660000D02*
X91440000Y-73660000D01*
X60325000Y-74295000D02*
X60960000Y-73660000D01*
X54925000Y-74295000D02*
X60325000Y-74295000D01*
X92390000Y-82550000D02*
X93660000Y-83820000D01*
X63500000Y-81280000D02*
X91120000Y-81280000D01*
X91120000Y-81280000D02*
X92390000Y-82550000D01*
X59055000Y-76835000D02*
X63500000Y-81280000D01*
X54925000Y-76835000D02*
X59055000Y-76835000D01*
X63500000Y-82550000D02*
X86360000Y-82550000D01*
X60325000Y-79375000D02*
X63500000Y-82550000D01*
X54925000Y-79375000D02*
X60325000Y-79375000D01*
X86360000Y-93980000D02*
X96200000Y-93980000D01*
X96200000Y-93980000D02*
X98740000Y-91440000D01*
X83820000Y-83820000D02*
X85090000Y-83820000D01*
X56830000Y-83820000D02*
X83820000Y-83820000D01*
X54925000Y-81915000D02*
X56830000Y-83820000D01*
X64135000Y-70485000D02*
X69215000Y-70485000D01*
X60325000Y-70485000D02*
X64135000Y-70485000D01*
X57785000Y-70485000D02*
X60325000Y-70485000D01*
D21*
X74610000Y-75565000D02*
X75500000Y-75565000D01*
D20*
X66990000Y-78740000D02*
X66990000Y-77608630D01*
D21*
X75500000Y-75565000D02*
X103820000Y-75565000D01*
D20*
X66990000Y-77608630D02*
X69033630Y-75565000D01*
X69033630Y-75565000D02*
X75500000Y-75565000D01*
X100330000Y-106680000D02*
X103632000Y-106680000D01*
X103632000Y-106680000D02*
X109474000Y-100838000D01*
X136840000Y-73660000D02*
X137971370Y-73660000D01*
X137971370Y-73660000D02*
X146050000Y-73660000D01*
X136840000Y-76200000D02*
X137971370Y-76200000D01*
X137971370Y-76200000D02*
X146050000Y-76200000D01*
X136840000Y-78740000D02*
X137971370Y-78740000D01*
X137971370Y-78740000D02*
X146050000Y-78740000D01*
X136840000Y-81280000D02*
X146050000Y-81280000D01*
X136840000Y-83820000D02*
X146050000Y-83820000D01*
X136840000Y-86360000D02*
X137971370Y-86360000D01*
X137971370Y-86360000D02*
X146050000Y-86360000D01*
X136840000Y-88900000D02*
X146050000Y-88900000D01*
X136840000Y-91440000D02*
X137971370Y-91440000D01*
X137971370Y-91440000D02*
X146050000Y-91440000D01*
X103820000Y-91440000D02*
X108712000Y-86548000D01*
X108712000Y-86548000D02*
X108712000Y-81788000D01*
X81280000Y-80010000D02*
X90170000Y-80010000D01*
X72390000Y-60960000D02*
X98740000Y-60960000D01*
X98740000Y-60960000D02*
X101280000Y-58420000D01*
X70000000Y-84520010D02*
X69530000Y-84990010D01*
X69530000Y-84990010D02*
X69530000Y-86360000D01*
X80020010Y-84520010D02*
X70000000Y-84520010D01*
X82000000Y-86500000D02*
X80020010Y-84520010D01*
X101280000Y-66040000D02*
X98320000Y-69000000D01*
X98320000Y-69000000D02*
X83500000Y-69000000D01*
X88900000Y-64135000D02*
X81280000Y-64135000D01*
X81280000Y-64135000D02*
X80010000Y-65405000D01*
D19*
X128270000Y-51435000D02*
X88900000Y-51435000D01*
X136840000Y-68580000D02*
X129220000Y-68580000D01*
X138745000Y-57785000D02*
X138745000Y-66675000D01*
X138745000Y-66675000D02*
X136840000Y-68580000D01*
D21*
X64770000Y-58420000D02*
X88580000Y-58420000D01*
X60325000Y-90805000D02*
X64450000Y-90805000D01*
D19*
X138745000Y-57785000D02*
X143825000Y-57785000D01*
X143825000Y-57785000D02*
X146365000Y-55245000D01*
D20*
X77470000Y-95250000D02*
X80325000Y-95250000D01*
X80325000Y-95250000D02*
X90170000Y-95250000D01*
X84455000Y-78740000D02*
X85725000Y-77470000D01*
X85725000Y-77470000D02*
X96239962Y-77470000D01*
X96239962Y-77470000D02*
X101280000Y-82510038D01*
X101280000Y-82510038D02*
X101280000Y-82688630D01*
X101280000Y-82688630D02*
X101280000Y-83820000D01*
X72070000Y-90805000D02*
X74610000Y-88265000D01*
X74610000Y-88265000D02*
X83820000Y-88265000D01*
X100965000Y-95885000D02*
X100665001Y-96184999D01*
X100665001Y-96184999D02*
X70784999Y-96184999D01*
X79690000Y-90805000D02*
X84135000Y-90805000D01*
X84135000Y-90805000D02*
X91120000Y-83820000D01*
X71000000Y-80500000D02*
X75390000Y-80500000D01*
X75390000Y-80500000D02*
X77150000Y-78740000D01*
X55000000Y-88255000D02*
X57755000Y-85500000D01*
X57755000Y-85500000D02*
X61500000Y-85500000D01*
X57530000Y-88265000D02*
X70165000Y-88265000D01*
X70165000Y-88265000D02*
X72070000Y-86360000D01*
X55000000Y-90795000D02*
X57530000Y-88265000D01*
X57645001Y-93229999D02*
X67105001Y-93229999D01*
X67105001Y-93229999D02*
X69530000Y-90805000D01*
X55000000Y-95875000D02*
X57645001Y-93229999D01*
X60325000Y-93980000D02*
X73975000Y-93980000D01*
X73975000Y-93980000D02*
X77150000Y-90805000D01*
X55000000Y-100955000D02*
X69540000Y-100955000D01*
X69540000Y-100955000D02*
X72070000Y-98425000D01*
M02*
